<mxfile host="app.diagrams.net" modified="2021-07-20T12:20:18.967Z" agent="5.0 (Windows NT 10.0; WOW64) AppleWebKit/537.36 (KHTML, like Gecko) Chrome/70.0.3538.25 Safari/537.36 Core/1.70.3870.400 QQBrowser/10.8.4405.400" etag="DTkzi0tltlQmwHoT-pP_" version="14.8.3" type="github">
  <diagram id="OTGysPJlWFDcdZbHmSO9" name="Page-1">
    <mxGraphModel dx="1480" dy="845" grid="1" gridSize="10" guides="1" tooltips="1" connect="1" arrows="1" fold="1" page="1" pageScale="1" pageWidth="827" pageHeight="1169" math="0" shadow="0">
      <root>
        <mxCell id="0" />
        <mxCell id="1" parent="0" />
        <mxCell id="aWJygEzvaQbmNNzUwZUl-48" value="" style="rounded=0;whiteSpace=wrap;html=1;dashed=1;" vertex="1" parent="1">
          <mxGeometry x="20" y="430" width="630" height="320" as="geometry" />
        </mxCell>
        <mxCell id="aWJygEzvaQbmNNzUwZUl-46" value="" style="rounded=0;whiteSpace=wrap;html=1;dashed=1;" vertex="1" parent="1">
          <mxGeometry x="20" y="150" width="630" height="280" as="geometry" />
        </mxCell>
        <mxCell id="aWJygEzvaQbmNNzUwZUl-36" style="edgeStyle=orthogonalEdgeStyle;rounded=0;orthogonalLoop=1;jettySize=auto;html=1;exitX=0.5;exitY=1;exitDx=0;exitDy=0;entryX=0.75;entryY=1;entryDx=0;entryDy=0;" edge="1" parent="1" source="aWJygEzvaQbmNNzUwZUl-18" target="aWJygEzvaQbmNNzUwZUl-39">
          <mxGeometry relative="1" as="geometry">
            <mxPoint x="250" y="530" as="targetPoint" />
          </mxGeometry>
        </mxCell>
        <mxCell id="aWJygEzvaQbmNNzUwZUl-44" style="edgeStyle=orthogonalEdgeStyle;rounded=0;orthogonalLoop=1;jettySize=auto;html=1;exitX=1;exitY=0.5;exitDx=0;exitDy=0;entryX=0.5;entryY=1;entryDx=0;entryDy=0;" edge="1" parent="1" source="aWJygEzvaQbmNNzUwZUl-18" target="aWJygEzvaQbmNNzUwZUl-41">
          <mxGeometry relative="1" as="geometry" />
        </mxCell>
        <mxCell id="aWJygEzvaQbmNNzUwZUl-18" value="" style="rounded=0;whiteSpace=wrap;html=1;" vertex="1" parent="1">
          <mxGeometry x="100" y="220" width="120" height="140" as="geometry" />
        </mxCell>
        <mxCell id="aWJygEzvaQbmNNzUwZUl-3" value="Label: 1" style="text;html=1;align=center;verticalAlign=middle;resizable=0;points=[];autosize=1;strokeColor=none;" vertex="1" parent="1">
          <mxGeometry x="131" y="220" width="60" height="20" as="geometry" />
        </mxCell>
        <mxCell id="aWJygEzvaQbmNNzUwZUl-13" style="edgeStyle=orthogonalEdgeStyle;rounded=0;orthogonalLoop=1;jettySize=auto;html=1;" edge="1" parent="1" source="aWJygEzvaQbmNNzUwZUl-41">
          <mxGeometry relative="1" as="geometry">
            <mxPoint x="430" y="380" as="targetPoint" />
            <mxPoint x="340" y="360" as="sourcePoint" />
            <Array as="points">
              <mxPoint x="330" y="340" />
              <mxPoint x="430" y="340" />
            </Array>
          </mxGeometry>
        </mxCell>
        <mxCell id="aWJygEzvaQbmNNzUwZUl-17" value="Attention" style="edgeLabel;html=1;align=center;verticalAlign=middle;resizable=0;points=[];" vertex="1" connectable="0" parent="aWJygEzvaQbmNNzUwZUl-13">
          <mxGeometry x="-0.0694" relative="1" as="geometry">
            <mxPoint x="17" as="offset" />
          </mxGeometry>
        </mxCell>
        <mxCell id="aWJygEzvaQbmNNzUwZUl-32" value="" style="shape=image;verticalLabelPosition=bottom;labelBackgroundColor=#ffffff;verticalAlign=top;aspect=fixed;imageAspect=0;image=data:image/png,iVBORw0KGgoAAAANSUhEUgAAAGYAAABmCAYAAAA53+RiAAAgAElEQVR4AUy8B5Rd1Xn3/Tv93H7v3DtFo1Ed9Y6EAFGE6B1T3Y1bbL9useO4vIljh8Rx4pI47gXHYKrpYHrvIIGQEAL1OprR9Nvr6d/aW/nWellrlmYYae7cs/d+nv/zL1v5y8+/E5196eWEdhYCGz9UKNfrdKcz+EqAp7jU6zpuu0UmY2DqEaYZIwxDiEB1Gtx36y0UiyOcdcElrDv7UhqtFmqgopo2ltpgeNsrPHDPQ6QG5rHm1JNZsuwk0C1aboCqaFi6SRT52DGT8Ykq8USMTNaGUEEJYWxsgq7uAtPT03QXChiGRhRFiP8i8UsQoRk6QQCeG2LoIWrkoygmQQSKGuH7IZ2ORyJpE0UhKjqu66KqoOu6/HmO4xJGEYl4DPwAP/LRTJsg8Gk0WlgxA1VRsTSdejtCISRhWdSdFm2/TXciS6S4RASk4hmKlQZR0ERRLBRMLENFUcHXwAw0Ij+g6tSp1xVyGR3DDEnEMhQnDqBlGsM3Ht1/jDWnrsNXQDcNAlXDiKu4bR9T0UhbHTIxg1IDpottuvNZVF0FRQPNZsPGjZy28WJ6+hcxUZwimcyiK6DpPs8/cieP330LcVNl9NgIo9Mep515FrVGk3yhB8NQiKIAVVVQNBPdiqObKkePDREGEbYdJ5tLoaoayUQCx+mgaZr8EA/Mc32miy3arYB22+fooUl6enIouocSqaD6KKg0GwHjY2XS6QSK6svF0VVNLopYYEVRMAwTQ9ep16uMj4+QyaZRNV2sLL4X4HshcTuFH4rPA+IxE11z8B2Im3EgQCxuwrQ5sGMrv/7RjaxYPAsr00et6crfNZM25aY2DIOpcgnXU1k4u4eIEDtpk9IjnNIx9E0XX8jjz24liEIUK4nnOsRUAy208Dp1XGea2vQ+fvL9X3Pd5z7H4PJVNBopTFMjZtmESkSlAdWaQyJhkIyn0BUdYibO1EGeefRpzjnjFMZHhvjQVR9i6cbL5C+TTil47Tq6YaLpOpqm4jodgrZDJpVkVlcvXgBtpy22NIEX4XQcGo0GlmURBAG+72OYOl35mDwpuqESX5RHUUBBJ4wUwlCXDyyeNJgztxf5nDGQB06Rh04uijiBYRjIh5ZMpkil07RabRSvjW3HcN0OlmmhKRFoEM8aaIrK6N53SRfmo1h5FFWhg4fuNnnq4Xs5un8/mpYgk7TQVQ/CkMmpKrFEEq/TQtUsTFOn7TvE4hqvPPcYu7Zu4+Xnt6A+9tRmUjELVU+gKzYaOu1mncjXcJvjvPbYLfz+F39m+ZoVPPfkg/zrP3yT1555ktB15IOsNiPePzxOqdPBShgkbAPHb2HoLnfdchu9uTTtKEN63umsPfcaWp2IMHDQVQVLLIiiYWgGpmmT6ypgJ+LU2nW6etPEkgksyyT0RdmM5O4WO833PVl6xOfiVLVaTVQ9IB43SSRMwMXzFDw/lAsWymoXYFmiBIZyUVRVLJj4seLrEx9iQcXPVFSNdidA12xxlogCn2TSJpm0CHFx3Ra+0yJyHfRYAUMsXNggwmVGJs7OLS+wffNrnL/xJGYumEer1cBQdRqdgMm6I0u8okQ4zSmySQ0/0gkVDS0KefulFzm2by/auiULblx36pmsPvks8ZIoioqqa7S8Fv39XUzu28dzjz/PB7/wVb7wjW8TeC2ysZD5y1biRyZBoKGoLgMz8+haRKVeRRSPoDbNXbfcSmNiCtWKc+nHP01V7HbxxkVpCAPZUyK3xPtvvcDkkaM89sCjjBx8n13vvMbwkYOkkmnanRM9jSjANA25UKKUyQeoKAShgu+bKJGGqnsEnofvi/+n4LkQi4uSKxqNQeAraCryQzwYUb7+3w9VVeUp9ENf9gLxeoauUSqWMAwL07JRIgVDNWk7gSyf+e4Z8rQfHRqjuztFafgAv/jxT+lLxWnXi7zy1i5OWncqRiyLqKzd2SwKPpHqk7BMLF2TlSDyPPoG5rBwcJAlyxeh//qu25ma9tg1NMnChX1yd3pqBJFPralx7of/hj2Hj/Gr738Pmwa6W+bVV9/npNPOwUj1oSguA31pVL8Dvo9GhKGbeA2H+YP9tKsx/s/X/w4jOxPHbRKEIXHDxmmWeeDPt/Pe1tdJ6g6JOEyWI05adwZr16yj7oAei2HH4yhqiKYosqmKEqZpBp7ncaL9+jRbTdx2xEBM9A+VyBNHxMG0DdkHFUTNCtFMXT5YUbbE4ory5Loetm3Lr4vFolz4eDJ+AlJEgewLYpUS8SStZosg8kgmMuiioRs+YRDQiRR8T+XxP/+Bl558kfbUKOnBGYyXPU5aP5tUKoWjBpi2iRn6+EGEbiXQOkXeeeUxemafRHffXFwlzqKzLmLt+R9AP3SsTrXhoag206N1ugqiR2hECgSBiqMmuf4LX6bQO4t7H3+Zs05bwYc+/xV8NSFLhhW3IQiJQo9QMUikkqhhSCxT4MLLLyeZy2J09RJGPr6iyJ6h4eE7FQLfZe2G01l/2gaMmEUimSIW65G/dLVZIwgjTF08XPGgFQLxhgwDXdPk90RP0DWDZEon2ZuSJUmcgFa7Lr+fyhjyT1WN/p9yJT6HjuNSLE7LUylOiihn+XzXiQUJQ6qVJrGYiWmadHfnZV8JFfGcFAJ8bCvCD0ICxSdu65SHt/G7n/6enq4sPbkYb+0dZ86SVZx/xTV4qoohWpMSEXhNdDOLrrb4xc9+xJLBhZx6/gCTpZD3dmxmwxlraTgdlC2b34zEruzpLlAsTpJMJWT9FjBW1HJNDTEE7DVEM41wXYcwFPUbLNvEdRy5KOJNBKF6opGG4t/p6LrNdLlMLC7QjkGET+D7WIaNpiro4hi7jlhX2Qh935UnQ9ctOm4bVcD1joJlqbiei6LFJIoz9YBm20czFCbGW+imQndXUvYGAl+Wt9b/X8bE6SBCj0L8UIBrAWZNIgnTAzQF3DAgijT8ZptYMibLbOiBr3hYKqDGqbfbpJMC1ktwztRYkUQiTjydwFKb/OhrX8LqVFm0ahYTxRb//Lun+d1vfsJFl17JyNQEvX3zqEyPE4uBbcbptEqMHjlMJm5TKh1H8Vvc/NtbyA0s5JJrLkMfmC3KkXjQTdKZFI16g9HRCRYtWoJlQRA1cNyARjPEdTxyXWkQc4Cm0KhXsWyLeDyB57lo4l2KxZNoykXVOiRTFp4boOghmoCnsnlHdHxXzi5iB5qGSeA5slaLBRNQWixS0lbkz257Hl7oyc0xWWxgGDYmKkndJB7XiccMojAiCF2QnV6UHnHkdWq1OpmMzfDB93EinwVL1tJpdFDE34tF4uwSaTbtlo/birBiAoyIfxpQbbSIZdI0m67cWOI4if4YBhCzDUI1wjYMDm17hyOHjnHGxqUs33A6ww8/xHXnr2XZyuXyxM8s9OD5dXK5GB3XBcUnl0nywnvv8fg997P+pEVk8zrHpxqUOwfZ9fa76OIBCDTi+6J266iqQSHfLfG4qM2uk6DtiOZnymMuekQslmJysojnnxjvpianSCUTpFIW1WpDPmgrpuI4TXQtjipOW+CAAAuhWJBQLqJu2Khixmh51Kp1Ml1JxAYVpcqyktimQuQr5BKibBo4gUeh0EW56kmYXK81yabjiFLl46KGYniyEaVJw8ePBIQXkD6kMDAbzU4SEtGV0mg2mridCD2RIKFr2LGAtm0SKgEWOl4UkMlkZXUIwzYJKyUHSnHeAt/BshTMtEXgFhnZv43lywvc8NWv0tXVz49/cgfd2W4WL1lGyfHw2h35TFp+m3anQ6p3Bm67wlubt9Kqldnx3l7GGx6j42W66y1m9RXQ6/UGmUxGvjk5xCV1TNOS5adarVAuuwR06O6Jk0x2sX/3MeLJKbp7e7Ajk1arg6qZxBNJ6o0mjuORSCdwOk00PS5Lmus5eL6PbSsS3oohzDB0NF0jFKfVc+SDFs1RTNZ6dGLxOqEmJ/hdr7+IYaboX7CMRE4laTvo9glwIMqU2PxBYKIrAeghgS/qjYdqgBaYtNsdCE2cap3K+GGatQYLVp+KFY8TsyyeeuAeOq0yl3zoOkIlRa1eJVQ1nEYcVUCMSD8x38VsAi/E1JNohhgJHVrtGg899BSrlvYzuu8Id7x4F+VikfmLVkt2Q3ci1ESSmCjbdQ3fFcjQoNJs079wNhddcR6WmWV4eorixDR739nByvWnoVcqdXp7+2i1WrK0lMo1OUgpakA8YZBbksB386L34joNCt0pWdNNS0zsPhnTgEictA6JlEIqIyZjl47novsnQEEiJt5IKFGQbSUkPQIqnpymOySTMRRF0CIaxWKZ7oyBOE3Vapu4FjF5fD+FGQWyXafQbNVQHB9Xi6PpKooYDIMA2xQlsyV3Zzxu0Wm3CXwNzxOVt0NPUuPuO2/hzTffYe3GTaw440IcN8StjTG8/1VKU0Wuu+EGJuserivmioBWq4ptaxC2iKlZJienScQU0uk+/KBNFChoUYzIyPHGlgPs2vUjRkeqLDt1HZ/527/l4MEpfC8inU/ga206nYB0Jk0YhcTTWf7mq98hlkyhKjaR2iKpqwwNTxOFOno2m6XREHyOGLIUSUMIusFzXUzDpjTdQMUmlbHQNMh0iYeRIvJDJicnyGRSGKaGKB6iV0xOl3ECQYKodJwIw/Do7rZ47JHXJCzduGmdRHuqaqJqGvVaA0XR5GBYLNVx2j5eJikXO6n5uPUyoxM1Fq5aT6AICsWS1EXZCSRSUwzBtWkcG9pNId9FPjGDYnmMeqdBLt9LV8pG81r85c//w2MP3ct3//0nzF93DkHoyXJSGdvFtVefj2HGCRwVXTdRUx6i+XcV0nhhG5sC5ZpHqTpFPJYkVD15KpVQIMAqew8d5LT1i/mbT15LseZh9y9CS2QI6k0mqlU6gUsubWBaKumsQa3myE2RSmZwHDFrCdCjMjJREtVecod6Lq1LxBOpBu1WXdIPgnpot106TigJQkX18ANxqHVZgsRjFxRJX1+vJAjVKJBNTXScZCKOGcD0dJuengRR4FGtVlm+cjFHj4zTbgmQIAY1VYwW5PN5xBAeRQ6ZrEZPvkAr9IjUkONH3sN3Glz9sU9jJwqMjBaJ2SoxXcwqgVxoO65y5OAOjDCiJ51lz85X+OOf7+Gb//QD8Do89uBdVI9tZ8feIQy7j75ZC9DCkHb9CDf9/GaaxVHmzUyz+pST6PJ7KMxegh8FpNMpeWL9oIOZFSfYwjZ7MPUE08UyqUQSQzUIIp0LL72ExcsHSfavxeoLSXXPkoSp57dZOCeDberErDQhoQQ1YlgWLETMigjdGq8+9TIHd+zimee3cO1Hr+Haj38crU+v36i2JzBSBTK5bvlLixIxXW1RLNbozevYpiQm0Hwfv1OkXJrENkIStgVWCtuMSYSGYdBpusRNnUQmSYBHs9pGlLKufIp0KokAFKoRk1A48Do0244gcvEd0WcERBfMMJIGabR95i1chh3rkrNMo9MBxSSR1LFtHUtX2bv9VZ68+2Yeuv8p9rz1Os8+9hCrN5zBhZdezuan/spN//ULLr/qMmxLYdGak1ly8hkM7drGb374Qw5s3U6nViHdleXV19/m8MHDXHDJxZQbLpqqYlsacSMh2j1h4KFqMdrtpmS/bSMOvicrwhnnnMXcBcslhSNQW6QEcrQoZC2MoI1qWZiqgRcJNjtCED1a6BMpDrf/8Tf87qe/ZfjAfpasWMwll19HMptAr7QCdK/NsYM7qDkm+aRNoUuntzeD2p3Ea0wR+S6tWpG3X9tMdXqErVt3YnV1c/rp6xnvZCXn9PFrzqPTCcmns2imSuS3cEObIGmDKSj5Dul0TBD0smmKsokWoqsR7VqTrlwaTTRZJUTXFYl8Zs/uQdNjuIGLbkJfdxIt1KlUG6S7kowdG+H+W/4sS4baajDQt4jFp1zLxR/6FLt2vMmbT9/OR687gws/9ml+8R+/4bH7Hybd18/orp3k7YBm3ODrP/wOqzedwW1/+C17dg5Tmq6Sz+QwQo9y00PR4lTHxlGVGjMGl6OHCXa9s5W77nkQJfCZPrKPpatX8ZlvfhvTTjA+MkI8kaG7O0ejPkU83iOhthM2KZcbWLZN3FIIOmWmh8s41QZXXbGJ6Y7FldddxZxlC9m17wj617//L4Lzw1FcqnWNwHWIFAUtEGyGip7IIYjRvdvfJ9U7i3WnrWfvviNEjSmeuftuRqY65LIp6nue5ljZ4aMfvp6Fq08jU+iiUWtx7FiDbCGLbXbozsUleamjUWsGjE3W5GDY15/HC31qjYYsEQJpVRsRdsw6QbEEHkNDFWb3FQj9BomEiuM5HD68l56ZPczM91KZOMxfn3qNT/3tKjTVol0ucejQBCtOPZ2OC6sWzSXtb+DZu+7hrEs2MXt2F7vev4VOEPLCc29yz13Pc/V119PT00O14dN2QsqNFrmMSaorR6sJ4+PH2frsY+za9gpHDx5HdVySekQ+2UXMiCNOtJXI0JMXVNRxDEER6Slc38fpBHLj1poTzOyzcf0KD993D1/6wvXsP17DU3tYsGwe5UpILtuD9pEbbrgxCoUApnF8dIKq0El6ulAlolKIVJ2W49I7cy6pnkGyAwPMW7KAJSvXsHDFciwvpDZ8hIuuvIQLLrmIiYkj/PM//5yxiTKrVq9g6aIZeE6bTtMjk05JrC4arBkziCVSxGO6hKSOp8r5o97o4IVCBtAkElT1CM/zMbQYrU79BGemhbhByOJF80kmUvzxT/cyPjVCX2+WC6+6Gj+0uOOOv/Dyy29SyObZ/NILbN38Ivv2j7Jt6y5WrVvErb9/kBjw8iuv8+62d7nh05/k4us/hpFMyf43OnqEXNpFF0Sn6K3pDHoY8fuf38TQwcOkVJWBnEpk2Sw8+XRWrT+DqakKXfkChqbQblRwghjTFYVEzOLdnXvI5RO0Jkd5/JabeXfnexh6kqmxYbpnL2DxivWoWsixI8cZ6C+g7Hh/R5QyY2STBi9sOUB3dx8z+0xa7QaWFpFMdhMEniwlnmBwFQ1biBqaAAYObrXG0Ds7eOXlpxgfmeTSS09HSeb48U9+yze+9U1OPnkdW958h3JlmNM2nkU9zJFJxWUvSWWzxC0BNBwiLIaGRognY1SrCoWChRIFEi2m0waR6zJZqUu9xzYU2q4qdZx2s0hTDLhxlXxfGk9NyN/xyKEhHvzL/ezZupmBdJXTzz6PXbtHeP/gPg4MVZgVj/ORz32U7Jy5nHn66fTOXcqBoRHeevk19KiFVnuXdWddSGpgvaTkI0/ljt/9gb07n2XjhkEWDC7kl79/kFIt4hc334Td1Yvb8slkhHbUYmy4xMzZc9l/dBKv0yad7WLJ0h6G3tvP97/2f1h9Ui8JTIo1he/86ueU6irHjo4yc6Bb0j7aP37nuzdOVNv4iF4WMrOvm+m6QzNENljf9dG0GK7n47sOSqDhh56EruMTTSIzzsDC1Zx6/iay2RhvPPcsvfNmc8NnPsSP/v1XlMZGefLe2/CbJRYtXcjiZSfhtJtiKMJrNRk5XmLP3mkaLZfBwX66smJBfMnJ1ZsuibhO5DQltZLMdslZx+sIvcWh5XoIpJDIZkh299IJxECbwAsdYrbGBeecIzfV/MVLefHFt8ll0+wdnWT1Sev59//6EWdcdilzlq9DtTO88drrvPzYg9z6i//C70xx9gXnMrDoLPxI8HYVfv3DfyeqHabsweTR/SyYN4cXtw7zpW99i5Wr1zJZrkkaXzDhpcoUlXpIobsb21IxkwkK+Rz1WgnDVNn2/rsc3LmbeqmJmepm4wWbUDWDWrUiVdhDB8dR3nhrTzRdb7B8sEsKV4YWUSy26XjQ8T3StpjqdTQDTM2g03bQdYN6tUG11aY5uYuJ0SKbLryIGX3d1EoTfPsb32F2PoGhKhwbO8rp51/OxvM+QK0+yt13P8nlV1zG/Pm9PPvUM3T3D5KfsYBYPEHcijE+MUX/LKFZCAAR0XFbhJ6CaQmlry05LlMoxprFdKUhxbFkOsnU5DQxKy6/FuBj+MgQcdMinU1JSH9k/2F279zJyWeuJxGP01XoB8UmaQpNxOWbX/t7XnjqOX74r19gw7mX0CKNIsRDQ2X3jlc5tu1FhHj86Ms7WDM/zyNPvstX//UHXPqxD1IenxZMp6SzBOlbrTco1l0GevNoakS15WJEBrN7VX738/+m2aqy/739eI7DhrPX86FPfhpFy7H/4H46jkkqm0c5fPhwJMg401DwnJB9e4dYuXwBQdBC0W1Gj0+STsXp7c7RCQS14mFFBkpQ5oVnnuHWX/9G1s7FS1aRyOTYeNmlzO7p4Wff+yYLli5kxfJBlEwPsdx8Fs7q4ZqrPsq6tWv45Fe+QVeuV84ilY6DoQiZWGN4uIJtCT2kJRXDqYkmuqUJ0l8SlYIUFRyM024Ri6VBPaFuitkoNBRCt43racQFvxYIzSai2XAwrDjprgStVg0j8knYMRq1Kr/7yU+pTU7SdJqoKYt/+fcfY9jdjIwMk00n5Htq1kfY/cYzTO3fw/T0KGdfuIFmNJs1Z11JzRX0kYupmWgYoAZEioFpWExOl8h1JahV2wRuB9pHeeHpZxjMq7z99ju8sb/Gb37/C4zkTClPOG6H0IvIZJNos9L2jWuWzUMXerZpoIQGmXQM29KZKlbxwoCYaaGGpkRpwoAhxChVDZjdn+WtLTvJd8UJ6yX+eOfjPHjfo/T3ZPns17/Jn29/gE2bTmNkrMS25x9j/1uvc9X1V3L2BZeB3o2iK1SaNYrTDbnYHcleCw4tollvE7ctbNvEjulUanWcjkYqGZPlSRCTrZaYfSxp1GhVy+iaENMAT6FUFQtsSGOHGJgbjbpEm8J5EzNjPPHgAxRH3mN64jBPPPsiX/7WVznzosvRYjnphhFGjEQizc/+7VcYQYc7/vwQ2ze/zhVXnsHgyecxd/kGqi3ouD6xWEyCEvHigkcVk8DEWIVmK6RSrpHJxPEE8WmrPHD7nezbvoMNZ57DB666mFTvPFoNB6ftEUvGiScEkQrayIG9N3pek5n9vRh2gp7eLtQoxBWqXCDoDl2enOGxGmoQkMvYVH0xKImGrDF3cC6h10GNXD7+iQ/y6F+f5+S1czn32k9w7J0dPPHXJ7ji6qs4dnAc1VBYvHo1RmpATtaxmE6z7eI4LeLxJI7jowvaIApJxmIokQAYIZVKBdOy6Oqy5IkVrhohkqEEEt2dkPQ1PMcnEYtTrDaxE4Ka1xGIUzhwavUmqWQSTfFJxTX+66f/wV133sfnv/hFrvv4Z1i94XxK5Yh0UkB64csSzhiPsSP7mTeg0ShPsmXLLj78yQ8xY8WF1DoarZaHYLjTqbTkDQWfWKu7DA0Pk04kmDGzIGmjVkOQwb4siysW9FOPYpx56dVybhQ84Z6dbzB/8XKy6TSl6QncQEMLG+0bA8/nuWefZ3Jkt4SoipkkGddIit1qC9tSkXorpJDLSeVuaqyGrZs4HY9YPOSJ++9l/pxeAiPDmrVLOOfiS7DsAn+97z7h3iLqHOfBp7ZQq3ZYf+YGitVJenp7GS9rtDoh/TlRyxViCVOWoWqlgy0KegReECIgs3DRqGInCWNWJEQ2IVVE1CoOlm5QdaHW8cmkdHkiutJ56i0haQiyNZSqpjB9KIoQxUIWL17G4uVrOPm085k5bxGVWptcTvQ5k9D1CMJAor7jx4Zp1wQUT3HNR65kwdqLqLTEpCWEbTA0lZglSphYA+FXs5ierDFnVvaEJSsSo0KZQn4mlhVHTfYzuHKVXHgr3yfFxAVzZ1MaH+WNp+9n9gydpJhjlgwUbjz3lAVc99HzWLloEZtffo1M7wAD/fOknqFqkEonmSh1eHXzARYumIkgXI+NTsjpO5eCg+/tYOzIEE8+9DRf+OqnWbD2PFq1mmxmV111HvXR41xw5TnEYgqprgILli5DNZMnmiIRhWyMlu8QSq1DZXKyKpkAISoJY4RmaARCL1LFAHzCJCh0JFM3qdccqnWhogbMm9MrZx3FrVArjmPHYhI0CLbb0FNyocUOFTKBbidZumQRumniir5pCfgt1BoFoReUJipYtk48naSQKzB3Th/d85bgmr3SqGeZ2gl1V1eIxSx5MlRFQVWFpKGSjMcIQh811MjlUqQzMenaGZkqkU1nySZSJONx6UN4a/PrfPNL3+SNJ54iGVNwWw30BT1xMkqTY4eOU+7S+OKXv0SYmkPbcSSt3nEdmk2fdrnBSatm0WhUSFg6CxfMZueB4xTsJulCntseeJHLLjqPGUtOo9xsEjhNDHwsq4tte8ZZkhjg8393I/WOS6vhcnj3QbK9vfTMmE2lUsKnQxiIPWgRCZengO+BIx/useGiRFtRHKEcY1o+VdGD4hEz+vNUmg1p1GsfH2bk6Hvce9+jHDq4nx/88PssXncGmmnhu4YEDUKi7vgG770/wsqlBakjGWaMdqdFGArNKCf9CZlCVr7+nDn9BO0CjdoEoZkj9ANMS5NintgwgtrttOpYsaRgwDCsJP0zsoS+MJ6IHaDjBwGVyQlJBC9d2IfX6OCLEhu6mM4wB7a/yuFDxzhl6WzefPcIzzz3GupAby/7xqvcce+LeKqFkpvB8HQZXwyV6JK3CVSTU9ctYMXiPqbLbQ4eGUX3PZbNmUkyZvPK69v58PVX8flv/S2KmSZpJtn17rvM6bfYuuV5ntvyNi2vw8j4BJXiNHXXJzRtWnWh6NWJp01SdkKSosLUkUwasre4jovbEWYHmxCd4eGWZLzFSfB9qDUEcoSeQlpSO9u3vspTD9xBypnm0nNPZv6KlVSrTSJPKLEhTeHiFLpx5JJI2STiNooWECgeY+M1PMfE0MTcFqBoEYqYEUKdRruJZ2QIfEtsGwkqHN+jVm/JDXD48CFsS/AIKh1PMO0hQaQRRuoJMKCa+KEp+7LvBASRMJEEVIb382/f/j4ZI+T8lS5bWFIAACAASURBVAWuuWgZg/P6OHX1IPoYCa64+hqumTmfkzds4vj4JKmUSdKOMz56hP6cSTppsWv3btJKg6WLl+IEcRq+kI5riN12ziUf4OqrrsBIdVNrqUzVGyyYn+b2R16mpWW57JLTuOL665koeWTTGeqOmNwzLJrfS0Owr4GB7wghrS5nnxkzs1SrLVzfJBb59BVi+Kjy4bebTcZGS2RTCRICOgcqw6MTzCwYtOrjtJoauqryhW/8E2U1QUyQougQj1ADHUILW/NYt3KudFmK4tXxwY0sOawWi2OkMt2SilEN8UAVJqabzByYKfutGI5b7ZCjYxPkExZurYqj61RbTSbGp3ln23tsOu9UDFO8XkyyBo7nkhYlNBAOHZeYofLCQ3exc+uz7Ni8jcpEhcmqx58ffI3JYouvffnDaPc8eOuNa07eSPeMuby97TCeF5GKpbCtDi88cj+//M/fse60M5ndl+P2n32fZiti1uBqpioCSQmzRJrVJ59Ko63SaEQUyxVUE2b19/HMy+/wwpvv8X8+9xUGFq1CtZPs3jfEwIwuIjei2fFoexGlUpVatYmGQ63mUp5ukM+ncX2HVNKQuodQIoUGFPkquiUMIAbSe6wa7Hl/F0/c9wAP3fMo5XKdnvlzWXvOBQSBRVz0IceThpK4pZIyIprTQ5SO72HPu5uZNWeelMC7cgmisHrCV6zH5eyRSiUZOnaUrnyGuJCVZamL8d7eUZotn8UL+/HcDuNj45RrQgnuZ07fDJLJOAEupfEppiouvmrQlTsBpHBqJPQOW15+TrgSuPjCTWx/Zx9GKo7rKKxd2cd5V1yE9o1v/d8bg0BhWBgBepP0dHdRqTU5PrSbH33vX5jf30VvoYvZS5eweOVyiuN7GVyyhLQwR0ceoX/CzYgJ5bKg7w3SKeGKt5g7UGBmLmDTBdcTYgq5hlkzunFcF8UQLpuSrNn9PUlmDeQRD0JAcsPwSaazRL7wcRl4vsJUtSEXJp/PSsql4TQIIotUymN6aBs/+O7PpKNx/ekr+Psf/JDAECroCcpGwGshTGl+jTt+91uevPdOahNDvPTiq5y66Qzp8ypNjRKzU1h2lijysIX5QvUoVSakn03MTIIxEGAkZtvSUSlkzli2QM/MeTI5YMYNunsKuIFOq9GmkLLpeELXmuT4wX34nRKdqWFqE8e5777HmBqv0TdnDphxVqxaih66KFaC/bt3ihNr4v3vfKJbIboZMqM3RkXv53Pf+icuOG8jhaTBZKuJnZ/PhnPjKH6JesknlsnjacKX5aOEAV1dCQIlpOMI21Kc4tARdrz0Bpdc/jHqzToJS2H79p3sGprmk5//It3pXur1JvXyKG+8tJdCPmBWPsXubW9y4OAEhd55nHXx+eiJAt2FNDrCZiVOqjBYtKjXKowd2M8ff3Ubc/t6SBgRV1x6Br35NMcnppgerzB3yXwMp8jWZ7ew7+AB6hOHUCKPW+56jg9+4kNo8T6cIJD+NmFGEWbHUPgPVKHgOv/b44QnQaVarZPNZyh0Jdj57ruYqQS2niaWMJjZ1yP7bdtpUqnVKMQtDh94mycff4klCwv86b/vQGjzPb0FTjltNXYsQRM4eeNZfPBTS2h2mtSrZY4PD3No/2F0AkEpBCRF5kVM9ZFC5Lkk7BxnbboMP26wt1LENlNMjVepDh8g4U2xY8d+rvnkF0gJI0ezgS6QlNpholQln01Jb/H+kSqd0GPb03fw2MOvM1as8oGPXsXHb/gMtvBHt0UTTtKsHud/fvxDCTjOPGM9R/fvYP2aQaIgzdDeLXT1zWLG/A14kYJHSEzV0QRi86c4ePBdjo9Py2m9K6Oz49WtzJ7RR5iMsXLVOdR8Cyec5vVXnue1N97htJWi3HTzkY+ex4c/91li8QIdz6FnRr+MlgSRoHMjIkVENXT5/UJ3QSI1IT/oWLQawk8XkhFzg+IRM4RBPimzPPVKm+NHR3j5nVfZum0LwweGGd2TZdWqJXIzHR0v8eHPf4lDhw5w5x2P4KoFaiR4b+9Bli9bxNq5y1iy0UT77Gc/e6MwXYi5TQxxgtawjJBysUzLaZBM2JKPStsJ6eL47+/9EyPDI3zoM58lMzBIJxBc1BR2XAyLKqVSA92MkUnoNOvHeOXlnex6czuXfOB8Do1Mc/Un/gY7lpE+slATErNBuqvAxrPPYv3a5XTqJTa/cZDIsCiVq3RqbRYuX40e70GPxRkbHSNjODz/yP28/sJTvPXqW2j1MglDIRlXOP20pbz+4qssWrmGF17biu+2pTehL6cwvHcf08eHueTKU9l07cfRM7MRZm5htVJ1obtoKBKqR9QbnkhNyBnOcYXjxiNmx+TJN2yFrMj+3HUz06Uqi1avY+T4JK3GEONHj5BQff5yxx1MT0zzb9/+JGmqrFi9hJ45PTzw1BvSdHjBhVeybuMmcvmZMlJS6OpF1ZNMTzsSdiv7Dg1FovHO7I7LaTQI2rz58hMsWrqCZFe/FMo0RSemaviBy1RxEswYs/p66HhNKlXhrvfpzmVp1j2MmEbMgHZphIdv/g279h1CbXr84s5befy5V1mz4RzstE2p0iBhZWjWqtgpg6SgS9QAr1WiMTbJ3r37pJXnwquvI99dkJN4GEa0y+O888I9dMqj0jk6XhavVeW1l97mnEuWcOHlH+DI/mluv/Vh9u3fxR9u+wV6qpu//dL/pVMuc9K8FF/53tfJLr+KQHiuhSFdDJiprPR7iRTAsWOjeL5KvjuOMC62G2LxXFK5LGlLZ2TPO7jCWiFY45jCrKXrUIKQ//jWF2W46rs/+Af27dzCnX+6C0fvkXK8yPyMlDqUK00+97XPc+El1zNV6ZDNmrQ7bckyOPUW0+UmhUIB7aKLr79RmAbE0GjGTPbvfJ9HHnmMi6+8Fl0TETUx9InBVsMNTyiHqVRaQj/hmRKRP+G2LFWqFMvTZHIpGuVh9r/xCPf+5VFmDhTYtvc4Dcdj/Zmn42tpaeTWVV1O87plYJsmke/j+gptT6cdqSxYfioLV5xMIpeUjnyxfXXTplZtcd9f7iJpqowcHmdyfJJrPnE1hTmLuPuB5+mf3cfyhQO88sxzXHHl2bzyyk527dktB0m3UZLW2YkKpGcsIp9L4wiLrhWT5VzoUYeHS0RqQF9vWsb4hAebQPiNLcq1Kvf8+td4tRFWbzyX7v4FxPP9BIHLnh1bufmmOzjt1LUcPLyfxcsXMXvuQp578QXy3bMYXDyXK666iE99+gYWLFuFalgcO/gef/flr3Fo7y7Wr1uN57bJdOWwBV+3YDAhHSi+gPqKy9MP38u1116JmUxRHJ8mHovLKVfsJJEREXODIPlqjaqcpgs9KTqdFpahkJ/VT6fV5A+/vol+s4hi28wcXEDPRJuhg4fo7coTpnKMTlSxdZVSrSyTWyIaJ2gQQXnbqo2RFEZy8XoKoechqA6RJBDDmYCu137y8/R3J6lNjfDL//wtTzz9CksGF+PUPe6+7V7enNnH6uVzOffcNXTvPsT+w6OsO3s97tmncvzwe5x93oUsWjBAR7RFRUP1hXNfZMEMcqkUdkJH8X3JCAeqGE6lishrf30ANRzh3Kv/FgzhAgoZLzaYW7B448kHuPCC05i/apA9297i1t/u5yOf+xT/+fMfEE/0MTo6SVf/bKJAbGaRYlCYPLSDeGOUfbt9DMvCJUaz1SGesNH+4R++c6M4KWJndKaO8tRdd7FwwUJ6BmZLbkeVfUeTNlNh4REYXRgChT8sk0nj+x0MLZQOfmFjKk4PSZP3RRefQrE8KWI2VMbKfOwLnyc/fyGdjk+5XCHfnSGfS4AfSqus4Jda7aZcBJEiazQbUnpQRCxPDIgaWKpGGISkC320lSS9/YN86INXcnjvIX77q5vpzZiUKy6v7BhlyeK5UuCrTU6gKDGmxit84GMfITtrBotXn8mTjz9LqdFCNWwskek0LFQLkoYvnPQ4nTodp0TbD3n77c3UW1VWLp3BhrM3EtkzZEBKKKkJO06tUmbL8w9z9ZVnsGL1YvYfGMMJdWauOJ1YYQkuSXK9M+i0VZrNFi+89gKze+eweNECoqDGULHESSefQ66rW3q7xfvXBTwURzVmRzz81MNMlaYo9PVLJ2QYOpRKk+S7eiTd4LodGeIsTpelI1Kw8iI8GkQu09MT9PZ0k833sPGCKzAVj2LtLyiloxQnp2nWx6V/WVdjLBzI8Jtf/5xF8we5/IqrmG51aHeaBCIxnECy1kGoUywLL3RANptDE5GMSEPTbeJGRNv1GZssMhlVWbX+JL4/M8af7nhIzhet+hFeffEttr97AM1tsGjZIF/7h+/Q0fLMnJfliUef42c/upGf/+Em0omU7K1CUhNJZhE1UVQHOxVg6d3E473ElICjQ/uZs+QkAtekWCqRyeXEY8MyTIaOHeC1zUcJrW14dzwtg0lf/vvvEZp5mXYWlFK9EXHw4BDzBudw2sbLccMmrzz7ILXiJN//9peJ2Rau25ZRR99T0CeE1wmLclgn1BT6Fi6kZ/4SOq4qG5lw8YtMiBjQhHFbJLBEkEewziJObVgxafPMZHJoushLCpOcxdbNbzG56xBnnDwg85He1F46U2eixPK88eJfeevJu9j0zz8ksELGj+4nbgqnYoYjh44yuDiDbqRotwVhKGh+H02KUApO4GJrGn25NGXFBTWJ2jWTRH6Av/v+Wp554nm6bYtLLt7Aj355LxedtYTLPn4DSn4Q00ww+v5W7r/pp1xz2TmsWrGYckelWa+TEJHAdgdVEJ71SQT1oyV75CxD7SDze5LUWjqOp5PPD+CpHlpM5+j+I3TKh/nEtevpWbCYqekiL7+whZbnMNCdoiGztCJfqbByxWJJ1r74yLM8f++dLEjW6FmwQrBFOK0xJkoaS5euZMvre4R3WydyA4q1BqvWLOakdSsxbJFtb8sgkgiIiv4i9AkR3ZZ8qqJI47gQq1TdoFGr0N3VKyGlSEwd3fM2h7c+zxVXX4Bq+Lyy5zV0u0AovndkLzfd9GdiWoqFS06i0fTJpecQs1Tabsjg/FmSmtGFGVALsExbQnipzXiOTLAXp+u06hVmDPQTKAa1SpVUZg6FWYNcnZ2Be82l5HMZPt5UOHX9MowZJ1N0FIr73qS+700uPmc1KzdeTKml0uo4pG3Y8vgDlI7sYsmZF3D3n+6i1myyYf0gSwTbMTnM2Zd/HOHiFiFcN4gk+y7Y4ZmzCvzytvcZ3rWN67pNbrn1VTqVKlOTYwwsWY3mhpTbLimjQ9Qa4yf/8SvefO41PnDWIlasPR0vVeDZpx8h17uEmWsvodVyOW3NbPR01GSi1GRmT5otT42yfNUpEr+H+GiqyCaKVLAjne6FrhyWKZJiQn+wGB8tQSAUvJCxkYO8t+Nt5g+kuPmPfyGezJI0NDRvmus+8mFmrTyFZCbNbK+L8y+4kGVrlqOnYgjjcjZfIHDrtCtjdOVnEHq6fPOTE8eYNWsxmni9SICB9omCI5yMLcEWt7EMn0Z1Urpi3LZNWkD8qEfOSVd84rOShLS0HO/ufIsvfPZr/M8vvstZV12DZ/YRiBhJc4pObYRje7fz9pYdPL1lP2uWL2B2PIYVN9n21h7suIUdz0EUwxMXKIhUHJpMo4kNtHh2Hz2JUxgbrpHyfTZdeTbds+fhKxaVSpHDoxVOX5Pnf266k6g8Tk/KpBRoHKt08FrjLJzdJ12fK5MK7elDTFaK6EcPbOPmm28nYSocOebxs3OvQ1EcKUpFisieCL2hg21Y0pUvYt+abmAoMKM/RatWZ9ZAHw/cfgv33/onPnjVBo4eHuJY6TDrBnv44S//Cz3dR7ns4GsWWs7ga9/9Li2nQ0d4kUNxG0WArhpkMt0yWGRZutgWzJu/XKqWIigk7gIQxVOY0eN2EqvnRECp1RKBp16EdugGIi8NvhtgGwncQKHerNCT7eKdLds564zVLD39PHw9RRj4EvF1Rvfy13vvxI1S7C46nDxoMTxVZ+7cGDt37GbTmaez4dIPUPfExBDJKIUXCnlAOH8NGlMjlEd389TL+5jVnWLVwgwf/OhHyc3ox2u36PgqSwZ7KB8/xpH3DzJ3Vi8LVy7khWe2oxpj/Nuvf0y5YUjrbCahsePV1/nwp76H9t1//Mcbz960XN4+cd3HPkdhRg9O2wUthmmkZUxC6O7JdExmLkXUXC4YoozFMBI2Q/v3cfef/8gVF69n8/ZjBFqcnqTO93/4PZpqlnrbYWC2EJwEEzuFGheNTgRdBaPqIqRtUdtdry35Jl/SEBGKyJ+IXKeuoVoJmg0PXY8kxJVqYxD97w0dqjzdjYYrk8UCLYpArSBYddWkXC7z1wfv51v/9HViiS7pBupEPnt37ealu25nx9vvMzU1wZeu24hm6WzfuZcVixcyb/58evv76J47H1fLSLVxbLzOS5v3SSut0I3q00eoHz1CNhNjqjLNyWdfyuqzPkCpUpbJu2QmQTalM3L4KE5lWs5ZDWGidyNUM8JxfQYXrWTX+ztJ2Rq7t7/LsSP70L72jX+8Mdk1l3kL1pBIdsldLO5cEUPf8eNTTExOk8unpVxqWyIcKq6dUCSF4zTbVEoVQbgxa9YsquUyE/t2sWf/Qb7xj19j0bqLpPyazIkwrE5pskazXKRPWEDlaCCuFfGJiZSAG0oZ2Ig0hvbv59jB95k5exahuDnDMHh35xBDRyaZv6D7RCJAFYRmKPUXU1a6CHGpgnCseH5HmiOEYSQZS+F2xli6chnpvOhfcRyR6ey0ufsPf2DzCy8xd36Bc849ie0Hyhw9dhzVC9m+ZZecnQYX95Mu9KJYWSnr27pFb28ePaoQiwW8vfkN7r//aXK9Xaw89VQu+eBn8I2kRHtiYBXXozjtDr39c1lxyhrmLlogDS6dyUN0alPM6h9g8Yo1TJWKUppYumI1p5wyV2zaiCNHp2nXXZYtLeABsVyWdqOBYSkMDPShazqWIaZjoWkLT4pwkAh4GdLTlaDaibNibZyn77uVoweH+Nj1lzHnpA1M1hxSpi2jDoGtYGcz9GeyMmRrqGI6EUlJBU9A1NAnroTce8edPPfEo2T1gLVr19LWIyxXZd6cHK18hrYIqhoCHfmMTpRo1kPmzs3LTKRwv4v+16iLPzU0W9wvM0mjVqNv1jyCQKdaqaJqTW76+W/Y/dZbbFi3CDUR59CBcebPm0e7WeIjH76QP936NO9ueY1Fcz0WrFqLGjlEno+tGVhKm3arje/YzOgfpBO36FuylE994euMjDUJOg5WXMjZTXn3jCc0ofa0NLoYGNx2y730xtpsOH2tvAFkuniIhYsX4UUxiXZnLViHahgRlfI4mhUj0AJUcdNQpUnbd8lkY3ieoNdr0hkpTooI0YqLdsrlSaG6yh3h1kZpt+v0DcxkwUmLueTKS8mlZ0LUkZJA3EowPdkgDFzyaYWgUSGMNCLzRDON2Qo7XnuNq666gb8+eAcL58bR0kl8IfA3A0EtYuo+likuyvEk0yDUQCFeifhGqy48zicuVFAVHctMo4gUSih8ZhGBkuHIwQlpAS5ODfHgbTdTmxrGTOi8P1ZB0zoyGr5qzSKOjNV4+NHnJHk7e84AsfgMNDVO1GxTL41gCBdNJBz5YrZSGVy0mN/89vdsOu8ieQFS3DZkvxYRikw6LRNq4qjF7TRpO43fKpLWO2w/WMIxUtx21xPc+6c/MXxwP6lEHK9dZXqyilqrwLLFc5k7Ny6Dn61GnU6rRdwQcT5hGRL1W2QphZuwTbNRp1wqYmsubz7zV77399/i3tv+QDYRQ7PTvPfeCJvf3E7oVGlW6jJ6oFoGs2f10ptPsmPryxwbHpNauBd2iBzYveUN9r31IHOSdZbP62brG3vpL3SRyHQxXomotV2UQMcUMb+4SE8rMsa9cE4v3TkT3QhlDlOcaqGZlCtVOQi3W00sy8YQ12yl0wRBkwN7t8rIRsJ3ueiSjVz7wYu4/LrL+OK//YTMjHnMSiQ4NjTJ4UNDTFRbPPb8mzh+gJ3uJt09h3Kzg23amLYuCVinI27c6JIssedNEXglAUOkJ00xbGlADByXatUn1A2sZJyLLjqNU1bMY+jAOJdfvIEXXnhTBrIEU29qOglx65MIZAaewXSxSL3SpNlxiWdj0uQgEJDYial0nnK1xvT0cWxTiELdbH/lGe666SYO79onh8ri1BhvvvK6DPxUGi6GbdHXLSRq0axFgFaEkVxefuE5Gp0aurjUxfNJJ0x2vvMODzy6hY0XX8WnPv8VeWNSV88MEnaC3l4TQ1xZoql4gSO5OJHO8t06Tzx4L8OH3iDfpUuPsKraJFMx+mdkMGMRLadJqdqSpov+WV1MDR/muUefYuncWcybmZOG983Pv0I7VGXU/OC+IyQKJuNFl96uHFv3jtLSc6h2WqYbRMJgdFRkTH1prBAzR8ep0mkfZ/K48EoruOLStMgiZiYYm5pkfHxc+hME71cpN7FTs1i+/hSmxos8+/gzxNU2N3zyY8ycu4Bqrc4TDzzMjjdeQW+7DY6PViWJJ9S1Qk+vXAyRBBYXrAk5eHKqKF2SiaSK44USgSSzA/QNLidd6OJLf/9tXnr+Oakann36Os698lqCyEYzFdk3RDcSUfOD72/h6K49fOXL36ATKHiBwXT1/6vpPcDsrMv0/8857znnPb3MmTNnemYmmfReIIUUEkISQkCqyIpgF11FEMvuumvcVX+ursi6ioiiKEgJTTqEhJCQXkmvk8n0fnov7/lfz3f4X3pdXkJIhrd836fc9+ce4OCunSxf2MStd6xRQ8wFCxrYsXMfLVNfZf2dt5NOJRiOxNREW7Pa0EnzvW8/zGDXeWrrQzgCL/PVr3+ZsWKAGr8XhxbH0B3KL5k1TLix4rDbyMVjRHqH6T1doWFaC/t2nmWoswO/XiJ66QgHdh1l20cX8OsGx093MaExyKZN11GuOBRbzGnzMGVig2LCmIwCZw7vJJsepnXiLDKJPD/695f4weYfMnVSg4JOSKEhCqBCqYzXYyGds9Pdk8JacbPixuvQtu1m54dHCdbNxFvloxxPsn/fAc6e/hiL4Epa2mwM9CcY6MsQmCFWByFfWLFYzFgKRYKeCp7GWuWysupmugeGqG2fzXd/tAh/yE8sXsJeLrNgTjtrb7+HUONUUom0omfkRWeUH8Uv7mbdw+33fQvDWkU2laNiMXHp9CHOnT3LA9/4FIc++JA9x65wsmMAc6GsxIX7d+7j/NkjrFo+H6NgIxfJ0Nt3kttvmgfl6bz6+jE8RpRCqp8lyxbzzfv/jUVzvHz+yw9yuTuqNAR5c4HhSEbplO1uM0PpDNtfeJ/29smYm5vZvmUnvQPPEY3lWDfNz+BQjFzWxkPfuJ26VitmEmRybvweuyrvhW2Qzwxy+cheorER/vLb55QuoHHmNDyajFfSXB6Mq+O7p3eQ9iY/+WxCuH9c7BikvtrEwvnT2PH6BwRapzB90RLyhSIuj4P5V8+lYgxhGRoZob6hlobGWgJVonkqqGPHrOzlZRxuWasKx6eA36nz1789wZ+ffJmHH36AtTcsZ3A0TmIsSfuMKcy46qcUrdVc7uqioaaGXKHI2FhMWTnEVjF1xhysNitZIy+gCzy2EvZUP/U+H397/hCzZ49icblZt+lGhgcHScUivPbUs0RHrpDt7WCgu5/WGjcWn4XaGTP5ePdlNYFesGIlTW3T6Ty8nfzoUWYv/DYJ0TfbLFTSRSJDQwx2XODNf7zLNcvnkDfKTJ83l4BT4+ipATrPHqMvUSGes0HYT9auM3WWn0O7DjL6jwG+/O+taDVXUTFL31Si4/Qpnn7iD7TWO3ju3WPMbm1Gt+RZvmgGbQ1ekpUM/iqdQnqYgNtEuWLCZPGTio3SPtmLV4N45xC6ZtDRN8Lcdd5xDVvFxMRJbVw66UL76le/sFmdiQ6T2mOLJ0UIfSZTSQ0l5YEX/a+gSkTsXRMI0HnyJLqWZeq8+XgdPiyaTbAtFCxeJTWqrhLvv/Bdytg0jUAwqBAgQszL5bNYNQ2Hw0l0bJBf/vTXFNJpJk+UpyrK6EiK2rCVGmHWJEY4cew4K69dxLGPT/Dam/upm9TEpe5Bus+e4ZkXdjB7/nRW3XyLQmj1nviQ5Uvm0jx9BekiqjmuqvYRDtdwcMc2DuzeTZXXx/0PP8zcRavxN7WwdNk8uvp62Pdxj9pBrV45g76efmIjY8yaUsPSVQt58ql3mT5rJp5gNUGvnV/8189wmYs0hKuVT+iu21fT0ljDe1t3s2v3AebMmUo41MDQcJLq2oCoFBRHQJ5w2UFVVwfweKvw17Zw692fw+HxY5hl9aITDPh56qm/oa1ec8dmm9WJ168zPBxB1x3YHXaMiuAJZaRbxiiK9tdQMzSTxctNt93CvMWLyZQsWC124smkQnjYrGYcit1VVkWEUCuqhJRBkWgyqgaj4eqwqq4MAfKUc2SiPVS54Ex/lM9+5V4+ffdXWbLmTibOWghk2PLCO7RNaePSxV4++5V/YuF1a5k9fxaT21owdBerrlvD9Hki1NDxBeoINU3CsPg4dfy0Gozmkkn2v/8PXn7p70xqq+MHP/0JefsEciUbTl8d/nANVy5fJBEdZNWKRXh0C621JlonuOjuTeKvbuK5LTsY6TrPskXtSrBY1+Dj6d88zuULXdx90yL27D7ChUsDDA8Pk8mlGY6XmH/1Iiwuv9oCFwpl9delv/C4XII3UGC52iYhkhgUsxAbGlLf9+6hNJtuuwXt+99/eHNtnV9psAQPKLX58NAILocAeGSKDJFkDJvVom7a5a5BNJeDZE7eKCujsSRmI0/JEIaYGd2hU5COXPCJVQFFKiqV8sjR6LJ7MZtslMyG0oCJK2zBkmWKerFq/UbqJ81jaHCIS91RcHiZ0NZOU30VL/1jKzfcejuLr78Rp78Gb6CFHnTCWgAAIABJREFUSTMXsGTlajyhWkrYSKUMXB4PiWJF6aOrQ1V0nDjJL3/wPTyFXmbObMVZM5WJc1eRK8iopqzULaaymZqQX62B193yed58cydDgwNKvdJxeRCP3cHljj7Onu/kyI73aG6oJp1OYs+Ogc1DQ/skEulhTnUO8a3vf5/v/cd3qA5KFecgEKonI5tQsTwb0tNZFAWxmE6jm00YmoXOLrkhIXVMnjh3npxhpm3CBEwXL12oyBpXkFaiMRNVSbEgx5oYlDTi4hNUBiINSlniaklmpuP0SY6dPEQyMsrNt9xKy4zFjEZzOAJOXE5d+SZlfxOJpckkBmiqC6PpPopqTVxBl6qsUmBkNIrf58ftcyrcSW/vFZrCYbyCLVEikDLp9CiaNUA+ayJVyFDTGCIfT6uZl18hVCCeN5Q1cHAkruZuzR746Xcf4sy58yy7+io23LwOU9Mc6utasZuKSuNVKBYV4M0qvYPPQ+flK3zvi59VrYOsH0rJONlYXHE8p89tYCTrZGggwqT2RkL2PBdPdZKzePjR5i8q4Jy9ejr+ujowBMIg/ZaZitWieACGWXTNBcpZWR3I5yGP0+HAsAhAyMyOrVsJBsO0tk/BZS1jsWtmrGKjY1yVLoTTnp5+5flomhDC49EoF5Mc3r6dIzt3oduKbN91jmwqictXYVZrI7//+S94+Kc/w+ZrVDZ0UdXkyoLCKuOvdqPbahRmy24TOlsFk806foPKGrFISikwc9kchWKZmvqJ+LxOirk0eaNIyWIhZwrgxKokUr6aADs+eI+dL7/AzRvWECtYVJGxZO0agrWN6uj16SVeevy3HD14nDvvXMEHO06z4o7PMjHcrCwkYkoyylYBiFCoCEezjLNip//iYW5YNZ2V115NIhNj8+a/MG/eFK7bsBqjFKV58nROnxmkuTlEQ7WTf/3aZpavXUbjlHp++h9/4KrlBTZ8qk5NxqXYEfSJpsTlFnp6k9g94LU6KWcHOLj/OM0TJ2LzVVMp25gzew51ddXj03Tpq77znW9tLhl5NcIQLbDMwETlrjutOG02unr6cfscXDp3ko7zvdyy6Rqq3BqxaBR/oIaDJ3oUFOH0xydZtXEN6ZxBwK1h0mSAJ+xlJ6OjKZyeKlWCp7OpcdibYD2KZXS3S9w/WDFR7bYT8tiUCUgXwUdkhOjwIAf2nmTStDbMdiuJ0SRH9uwj0X2MlkCKH/zwd9SGnMybOYPkcD8fH/iIX/7sF+j5Ya5fPo1FixfT3R9lwVUz1FwrkswwMJilq7Of5oY64onxccxI/yDRzkNs37qXSxd6qNLFmJXi7IVhGhpacWpWus9d4ue/3cJwNMud995HsZBmzvLFNE+byd+eeBGny8uihTPJZkfRdJ1KRVesttFYRmmdHQ47mcgV9rz4RzpP7eW997bjd3iZOHU6oRqfIipa9ApjkbTQvfKYzBacpox6b1K5AjbdyqlzvQT9VbTUhXG5dKXkj6SHePbFD1i7biGNV/pYNLOZciVPIlthyaImjr39NC++d5x4zsTKOU2sumYqJ3pt2KsbmD9nKg5nkFS6gscjXXxJie2cXisOmw2SYzz2mz/T13mF+sZqvOEQFz8+TCoyis0dZM31C9AtQUzlAvNnN5LtC3Cud5hfP/IgS9dcx49++BsspUGWr76Ky2cvc+2nl5IwTDz8389yzcJpVNe2cLk3TaqYULa/ibUBMrER4gLwdgT5z4e/T1OgRChYxenTHVyzUpxvJQIOC0/96W/kTXDjDSv50Q/uIFuyk0wXsVfX8vbLr9He1kZtXZCGZi/Fipls3oJhEe+qjaG+iBKS1NW4KQ5f5M+//KGq+latXsKFS6d4493XWbZpgzL+CklwYEhsHBoWr91C35UOHn30j7RNrePWe79EuWzFq1kZOL2fIzuGWLVyMbfetoFVi1roPHcW7DqLb7yDWVMaaJg6l+9891cMjcCl00dwlTMsWjobr13j3MlT7N59kqwtwCt/LDJrzlLW3XobdbUTSadTSor73J+eYWZ7K6cO7GL/zo/YcNs6rlzsoKf7HE7NRjKZ4XN3ryedK+N2VvAG7NSEl/HUk1sYG+jhqvUT+O9H/0o+colZCxawYMlaZkw7isMTZtbypcy+zse82dO4HCmRL+Vpqw1jaS6q7ap4a0L+Em+/+jydJw8wZHcxZ34Lf37zaYK1rRw928mSWROIJUs88dwb7D52ltYJjUyb166U/719cXpOXWDz937OyFiMFcuXUTB0pbix2QTim8bjtSkkvXyz3351Kz6HTtxTxTtvHVLe07tuXIfLYiNTKFAo5silBXpUQvvGl7+w+ZGf/wLNKLL/wFFWrNmIyx+ibXIdLz79Wz76YDs73tnBpfPddF4YYNnqtfhr2qiubyeW8zNn/nwmtTbz9LOvsGDhHCY1u1m4cBZvbz1J12CctFnczznuufM6hrs+Jui346/yYMtG+L+f/Zytr76BLderlJf3f/MrfObLX2fdhg0M9XQz0N9DVU09/3T/dzFMXuKZvBLeZbJ59u7ZzYMPfg1PdRP79uznwpkLtE2byZvbP2Zya5Djxz7m1KV+7rzjRpnzYqmUCHgqymEt1NfLJy9w8cQRXvz7Fo7u3cU/f2Ujuz76mC9+7Q5mLbuRLc88h8fvZeXq63j2yS10dVxmzsxmIkNJPjzwMauvX0qk9zIz5kwiZphpnzSTFWvWkkzL+rus3NWGGbWeNovB2DT+Mws/p5gpkMxmGIimudTRy4QpM2ia0Ew0GgeyynpiOfrRm0o894Uv3s6Pf/gLPnxrCytv/hzozSxcvp6hzj5M6Lz65BPc/50vU7GLkdVBX9clrLqPaMHDnBXL+EnYg9tdRyQ6QqZi4jNfm0L3xTPUhEPUNLXhcNZw9drbsJlz/P3Pf2XGxFomhi3c94f/4sDpSxC8zOSF8+gbLdJ39hgnjl9Q0OkbbtuI7hCZ6ShDkSg+Tz0ms5Pv/sfDOJ0OCukS//7DzfT1d+DyOohmdSa31NDfewmz2U284KRoxAj7vPScO8Krf95DGQuvvPgqplISv8vKxo2rKaUT3HHPjSxYdxsjXX3K/h6e2ETFdQO33X8Pq3oX09o8gd/8798JqXWAh1XrN1GxuVhud5BLl8iUxDlhqLepUDZ/MkXRiaSSeBxp5kyr54NXtuCyuLluxWTOXhzmylCJUmZUtSZBf4BiSYBzFkx3LWitfP07d9MyfRYnDh7m2aff4Ps/+R9Od40x1t2Bv3SGSNbMuRMXmDtzMiVniMUrr1O4qmB9AybNjsVcolSKk8qasIkMyWzC7LASdDgoZ7PERQpks2B3Oogm8xRS4HaVcdnHOH9mEL/V4PiRD9i+7yyVtMGJj88pV/L6G9fznR//iGhG3MrS8OZUeoUADsTnnxhLqAWZUGqdPhlaWknlK1TEVu70cP78RSY0VLNr29u89/LbXDVDY9/2w6RMXr74jevxOWy88MweKpk8rZO9/OCxv5AvVfPA57/M8JXD/Pmlxyl4Z9I7kFRoeJNV8PoD2MqiQQiAzabW6ImxPIGgm1S2wMBgnMZ6r/LrmwTQWrZz8UIXLssAR95/l492bKOhPkgw1Mb69Yv4x9Zj3HTXnQRbZym6um7RKRWTaDddu2zz1UuncerEFRobm3n5xa3s/2gX5uII+ZELRIc7uTKQZzhSxOG1qgv6zmvvsvudD2ifMZNQQwNXrlxQ+3+HJ6hMquJzjI4l1R5F8Ll2XWd0YIDD+w6iGQVcVjOlfAKxLb7/9i4+evttOs5cpMqps2bVQlqnt3Pd6nms2/RpSk5pSsUeUlF0IvGuJJKSgiFK0ColI5JwBkwOykUT3R2XFapddzoY6+9Eer2zx08x2nWetsltpCNj3Hv3GlZtvBW7AxbNbeTox53gqiKXyvLTzb+ibYKXmfPmUvG0KZeBXikrUpQsCiO9XQqAbbbXYtIsSiPQcSWO22VRDFHd7iQZjeJ1CB9B3IMVaqut6FqJd17awoQaG5s+e5eYOdiz4yBFu4t/vP4R6zesw2SzqUpVVuLaommNm6XJ2/PhQbLxBN2DURYvnslXHvwGcxZOJ+hKcvzQFS5dHuVzD32JT33mToYGu4nEerE5gkyeMQWnx49ZE6mTiXwxq1QqToe4fkuKT+a227ly4RRvvfIke3d+oADQv/6/J3AUopw6cITk6AAli05kNEtffy8zFq9mwy13YJIhpFkK6fGwBGl4TWYh15qUs1kku2Jj9gjE22RBuKkWWWo5HHiqXDSFQ5w/uouJbfUcOtGB5nAozlksbeb4iV4unb4Cmq6WX2Ja+sufXiIeG+bhH3yVeatuond4nIpeVxMgm89RX+3nxcd/SyIywNT5i1XahkDDRfvm99mxCo+gPIZuZBFZk2x7nVYNQ8uxbftOdr6zjcsjBXyBMHs/PMzQUJojJy9j1QrMnDUfp1ugc+NxKVqdS99851e+zdLrV9DZeZ4LZzro7B5h4bIl1DU2UMiNMDSSIFPQ6RlMs2jZDYTq2lmyeiVzFy0iEhWMuuzSY5hLRfyegCKbi/rFbhPbtSzIijRMqGfFmlUsXrKS+UsWYzPB21te5brr17B85XyiI32UTCXapk1n6frbsXlrKBqCRhF+pshW5fEzqUm3MI/NQrpDUipcqu/KF1JKBlXQvBSwYjOVKaSzvPzcM8T7u0mOxhgdGOLEwbMcPN5J++RGhgcGeOTRV5nZFiIcruOjI2e578ufZtHqjQpOPWliLcFqrxpFGZkoe7Ztxe+zMuPqFVg9VRjy85nMeJ2iBilTNEw4rfD8s88qR/OM2bMZ7LnIM7/9DR+9+So1bp3P3bMRryuv9lEuSe/QKjzw4D0EJ06lLKqhclHBLkxvvfC7ypylNxKLZwkGMjzxnz/h8b+8yi83f5aWhlZef+V9+vr6mTN/GuHJ07nmps9h0avUpBlNULgSIlBUui/hRTht4h7QSCfjSptmc0jKkFkxV1KJLH6Xm+6hEXzOMoVMmu6IBZeWpNrcqWZeE2esJmdyKR2vCg8S5mJJrIQSOiTTCQHL5RGxu6GYZdKvGqqhlfCedMZEvlJm8gQ7+158khf//gqdXaPcc9tiSno1fi3CsZMdnOoqEcvnmOQ3c+td13GhK0df92W++6N/Qw+0YCiFjU50ZJRzJz/mg7feZPs77/L315/E07xYpUW5lPjPwJDdlXxXNRMhn5sf/+sP2blzB5MnttLglZ+vwIprJ3L2YB+XLvTRHU/wx6cf4eje/fz16Z3YLTm+dP8/0XL19fQPmxkcSWNeuHodkXicsxfPEItlcXm91NjNBHwN5HJZGhqCinns9AZx6Rpeh00BpYv5zHgslKCn7D7sml0dMYlMRqDs9A4XiOcqmKxibi3itLhIxWKK5dXa1oDuCVPVMJX62jpyGRO4JtA1aqdnOIuEOQkeWIacQkPPZ8uKsxmLZknEcsp4m0sb5OQtEfqEWSdXHCeZC2U24DRjZBNs23GI7u4RipkiRZud0cgoMxcvYv5VM9GJM73Fy9LVc7jh9vWMpHOsvH41rqBHqUJ1s8HO99/l0f/6f/z+17/h5adfY8HsSZw/eY50JIpV5MFiCpQ1tyEyNoNyMUvPQDef/8IdCgt2av8eovEUiZKJB77/PM1tLYr7tn7lTC4cPYxkGnSOjik+XG0ohFEUim6Qae31aA9+45ubJcFIMFEyPNv6+uu01enUN09A81UTCgdxVHl57rV9pMaiylvfPn2WGjkIAbxQNNR8R6/kFCAulkatAAr5nIrMUulH4m83IJdNUF3tI5dOKMSvCNX9AY22xibGIlmsLj+heuHgF1VmQCUnOS5W+gZGlKckFRd/pFm9HbpVUpeEk28mmS+TTmWor6lSKRfVfjtXTh3hrVdew251sGH9VYotvX3bIXbtOc1QvMwXvrqJabNns+WZbXx8tEPZJBYunk8y1o/dauPJ3z/OttdfotqSZUZ7M5rbztcfuo+2mUtw+GrJ5EvqDZE1lcNmUg+pUBGTqQRVjQ24bDqhUB0dAxHOnL7MinntHDvTycX+KOF6D69veYdUPIfDUmG4exhfXQPOYAvVwSDlUgbtlptv3jwW66exsQmT4GptBV76xy46Llzk2nUraZu5CH8wyNwp1Vy9sJ1fPPoUC5bNRxe7d1FTTDG3s0BmpJPjhz9SDjJB9DqtOWqDdmTXI7x9w1zG6rATjWdxuByqzBW/Y1npysrY3QHCdWHFWZaMGLNup5QX8HQWqw3Fa3G5bYrlZbLkkIgRl8ulKBV2UZ9IcEOhzOjIAP5qL93nPyZkLzI4OMD0mU2EarxKerT36Gk+e+8deAJ17N75Ee21OtsPXuLb//JNquuD5EcH2fnBDg5+9BEPfGE9x46f5eW3D/Ktf/lnpl21Gny1xAsWTl7sok5+T1NeOe2kNxL5cFfXGKmCjbnzFrJyxSpWrF3JouXLWbpmNQkjwMZbruOqpcvJ21vHvTQX+pg+0UvLrCWkKrU0TQji0E1YmhvryJZyikvpcdrx60XWrboad5WTlglN1LROZtfObTz7v4+z5Nol+L1u4kPDtLXP5NTZs7z1+haaww5GuoZZc8MNlFIxWibVsfvDt9j2Ziczps4g3DKdmqZJJBMVBZC22QSbbiihXzE3zih2Ou0Ir8xqdapdhbopVJS/pFKR6siMxVqiWM6SzQuYedy3KTkvwuIXqZPbatDa3EixZMPXMI1tv/0jucgIH+45yWfuvp5S+gSLF05nyuQJPPPMG8gUeu+RU3zh/q9Q3zKb7ovn+dMfX4XUCIVEHt2lEyto/NN9m9jwqVs4dSWmcg6GEwahqjoSMQsuVxmrbqGYT1Ms2vDXNEjTxdBYioTVoGskj8negivsYe2N9QyNjOGqDXHDLdNx6VmuXnE9I92n0QNNFBy1yhBc43Oifff7390seiw5MEdG+nnp+Rfwe2rY+uYOwh4zly6dQYxKoaZmhoZiXL1sOTMXLcflr6LnwmV++m//Qa0XJSx/e9t29u89yOwZrezddwq/OAk6juEJhrF4apQPssrjQsjmImWS+BOR+4j1TT7myPdCCEYIbamoylGfrxoBDUkFFo+I/Q5SabNawWqawehYHptuU5xo8XUaFMnmilRKNubOnEAyPobZ7mFSU5W4gHjwO19h964TRAcGuHyhm0/dvo6Fa28lmtYIOK1se/t9ypkCD/3kXzm09wiJ4STrb96At6YFh0p/EomtCeltYqNxJVgJ+MVKLtN0syJgeBwVhSURGJBwy1LxlOLk1ItUWKDa+SjNoZwSMUpYka9hAu5AnQiaGYsmcQi7+qHvPrhZwtHk+CkWhBZkpbXRzZUrXbz23j5qfH4Emt3V04vb5eWbP/g3ClaHojz0nTnJ2MAV2ttqGUlk0OwOPE6nWk1j8Si8b8PURQRaZiidsagUBaMuKhwJbBBGmW5z4JROTwTkQuiTFURZIDvgdDrJFOWjJcEtFfr6xsjmNRVXEg57FZ9/cDCJ3Wkn6JNszpISEpZLEuTgpLa5lWimzO7d+zh+4Bh3ff4zZK1Ofvv4K0wM11Lls3PnV+7D5m3BMIrYbEXyI+dYuHgOa+/+IunhJGeP7GTB9dcSaJhKuWJleERIF3Famn20TvSpULlCMa+WerLZEk220PGlvC9rQlS3Ea6y4NILDEdH8HtMHN29lb/9/hk6uwbYsfV9auxphdJP58UQLiF+ZSwi6hZ8k2S42O1Brll1E91nd2Fze/nMPTfRcVkCDyazYuOnaG2dwLnuFJrTTMia4/U33sUZrCFRtBGqb+Ge+27HbPYifnK7WydfkHwxDSNXYCwW4XLHOVrbmskkC+otkbmLxCBWTDJXymEUxhX+UpZJ73L+fBzNWsDts+Ow2Vm0cDp9gzFSWUkdlP2gRrjWg9frU8kUYt7tvhLBpVspmIr0J3Ncd+Pt1De2Mtp3HG/LVOUJvfXGeRzZe4ySyU/RFVbwVUv+ikKiLFg4Ha04QjaapGAUueNzt9I2qZ1SNktFd+Pyesj2jOFyaApKGo3maArLB7tIWTcr24oYRkQCbDKJ3bbMhdNH6OvtYf7sKRw/8A6m9BjLFzRLyAnn+nooJxsU1r4QWqj8mpohQAvxnGg27HpBffi7+6IEG6bytW99m4aWRmLxHFX1rYpiUSgVSCUv4jd5qdi9PPRfP8YsUILRfr73wL8zffYs5s+fRSGZpKdzRD6HZBOjCqrgamylkMhRKlhUGJzVoivBhjmXUe5k3eZWb5VVtzIyNooEuElQm+S/CVY4mRMVchbRqSUzcO5cD9NnNCE6N7MpS6Viwyjb8PsCEsFJoZRTGQKSejF9/ixss5tURthHr79GqrMHn89NUaorrISsFYqaiZzw+6067/3jEKnys4wOdJEydBoTOhWbob5xAZeZBbMaxKtLMpIjl8mKkZuyJu+KnARZinIU51K4TEX+9qc/8MHWd0ll0qy+bgWHD53FF/Bxz83zOXWhQ8H0fvXoq5RMTu755vfQQy00t7ZiEUFf3mTB5faqkXNbay0VyQ9raFLsLZs/rRzL6WQBb8DBxNZWjLJFmWK9QXkeHPh9IX75yM+xuzU6Oy+x6523eemVHbj1Avd96QtctWqFCqFraq1SKBOpskolnWIyh6kkHGezEoYL3UizFoklK0RSJdx+nXC1B12Tpt8gnc5SHRDroYZNzotSAR1BJVYwLDIVKOMPWFVPYS07FfNfSIDyS6m4cJpTVAXhv985pqwgP/vDw3jddZQKGYZSHprbqilmUxw+MUTJ2ErFWcU7e0/ia5rP4qVLsMo3sFjA73OpGx/0mwiLNEuCUq0WimOjRMZ6CbZNxedycXL3G7z8+jv86HufIRMb4L0PLzA8MMLcSc1YHGEKljEKuR7sniDRvmEuH9nKfQ9+i5GcbDDNBiZxJ0elIhqPrDrd0UdNwEtbSzXpZI7oaC/hSRM4f2o/TfXNuDyNOO0aQ9ER9uw6jL04ypEPdxFPjnHl8hXqnCbaa6qxeMy8s3UPZqeDZauX4rRm6e/pQHe78fhbiCRLuEwW7FaNK1f6mTG5iWhyiEBAguA8JBJxnDY7scQYRiWLPyCpGA46u7oUxreheZJKQhIk4zj7sqIC4iQKK5lMKE11Ml3B4kjjc1u4cOoiv3v8TXqLZu686SYmTV7OcDRJTgSNZicadnZuPYCINLrGYrhiWb76qVlqhT3WeYxQYytlrFzcuxtfwE+wcboKAJIhq8iBTFoJl8er7Pa4LYwO9dLstRAbzXC6q8LIaI47PruKg3tPs9y8hq9+4wF02184sG8frY3VCIVKrJTVNhvavfd+bnM2oylKq3xg5YJXKnYlSnOIU7lowu50ixRT6czsbq9KxHvu6T/yzksvMHz5BNG+8yycv5Duvm6S8TRLZzexdk2bom4fOHKKHR/uZbC3Ry3dWiZOxO1roH8kRSQRJxzw0BgK4HCbSUl4m02jpsqJx6UhW8BOSSBS7jCNWLJAJJpB1xwqFU/ItwIwFdeYYurKsSxe6kpZhXbbrFayn0QiGtki/Rcuko11K+X/tTduomyVnkG8lBZ8fhtGehRbMaMCI05fPEN7s5ejhzu549O3kxztwe3RcDir2PLUn/nZ/zzBpFlzmD5jCkIhlIBUYQNIYJEk3so2spyOkxroZ8/OQ1zuuIJHK7Fu+VxWr13FhNmLKNmCzF24iGDQja2Ypqa+lsY511DM5dHWXr9mc7ixTaHaJR5ETvKGoEDVJKLDrFjMQquTPEi7u4qKRTzrSYYGepk/f4GK7Lh2+Rxq/E46royxfPkCcsmoUP+53JdV8RvrN2xk2ap1LFhyLVNnz1OztkjCYHJrC1U+G4VcWVG7ZTTU3BigYpi5cGGIrsER/CEPVQ5dSX3kSOofyPDu9gPMm9tKdcivqBZiqCqbpBgYH7MLsFtK26xghyUzM1ch4PXy0e79mLUIazfeyfT5KzBEIWS1Us7lFEcgFo8pUaKwCPrOHmT50jbCDbOIVay8+crrlPsP4a1p4PHnd2Kxufj2A5/HqAjDs6IyzWQya2hCDynj1Aq8+Nfn+HDPIaZPD+MBRlIGe/YfYfWn7sIWnITJpistXvvkaUycNgurS6pQ8SgVsaxcco1a4abzOv7qasW8HLh0AaspTaipBcMkcVhXiAxFmD53qSIx+dwObr7jHnL5NIbJzaTWIF3nDyo0iFC5F1w9A09dA1+6ZSm6vYpAKKRmZsKNGRmNIRZPyQCz6kUiwvfvSTFlYi3Tqv2MxdLEI0lcNpvKY/G5rOSSCTSLj8NHL1Ev0qEGP0HBn5RFkiieUClhZNospnodiWfM5SRdUBZbebUPEoHJstXX4NAXEaqdovLLHEZOnQRiRopHI2p68MLWvcyfFOaB7z2M7rWonLUP93UqeF2V28uTv/hf9PgYP/6vB9ErErBgVrkIcjMsFreKAB7pPI+5RmfeggnAfEzFHG6zRvOUaiw1YQITJqlUEEn80J0eMk4Nb1UDNbqdeCqJRcgYsUyKcGMj5kpRgTpz1gxmdx6nK4TFJnFPFvpzNoqaV013xZKXE2dZsUg6BTUT5+Go1mj3u3h8ywbMZR3d7WAonidTrBCuC0pNTraYZWAoRjJawOUu4/FKQIJZ9SaRhJlUusyF7hTnOy4ya2oNzXVh4vEimWie2roQQ4NRAt4qgj4rd92yGM3QFB3QEI2UITKp8eluNhPj8oXL/Ok3jymB9s2fvRenw4xQDJuaaxVKRJQsZemX5Ntg1scJ5hYzHocPt+7kf371GI/97t85caiLJ/7nL8ydNoGqGUvYcfw8Bw+c5bbbF9MycRLxbAm7V4JTzUo+LLwECUutrmvAMKUUhdfv8dF5pURkMIUtY7B62nwcpgQNIQ/5op2cYZDOJJG8Alkd+NxOipJwHunvJmEr4TJXOLpvH3sOnOCLX7+fqgmzVObL5UuGSLG6AAAXQElEQVSXqAo30D4zTLksKa9C8ZZ8FxmTlPDYU2gVIfsFkD232SKjFYOCpOkUU2RjJgxxr5rNuHUzeo0bk7iN5QcxzDSGGjAVrxAf66dUdOM0GwTtVmKZEl3DQ9T6/fT0JfEHHASqijhsVixlYzwotFJRWWZma4WegRRyEcqxYZ753aNkI5exWSYrxJS44EQ5p9YHJo1sIYbV/UkYdTmjsJBubwCL2eAr//x1IdBz7tRJPtixXzXCK6+dTdJkYK1tpLVhOVetvBabzUdJjF0WMVGViGcr1Hl0ymZDeTpLiSyhhkYO7T3M0X0nueX6iYRmzOT1t95nJDLKlFmTmTL7WvwuP5VchnQhicfrRzdpbPnrH9F8qbHNWn6A/dve57m/beHaFVezbPU6ShU7o8P96jiQ4NCTJ87hcUq5a1IBApKdLGWviAOziYJyLtud0lqJebaM128nEAwwOpJV3n2bxUE+l1M8zEpJx+20Es8VEcKqMJot7iq1vl48K0gsElG4FKcNUkUzPQNJvA5J2XMTCAQ+Obo0hXk0qzCGPG7dxNkDu/j9Lx/FRo682cXXv/8Aut2jaBPSgRv5NL/51a+Z0FxPsK5e2dgdlBmMSlCCQar3FG5HSYWtnr3Yz7/88GuE3VkVKuGrsjNjzlVkI1HVBHoaJ2ORpHLdQyyWUw+lx2dHDE3SQxllJy2NTYqQ0drkQHrAxYun0NY8iXdeE6EfTJw1j5JoJsR8LEJ+eegrJob7L6Fd06Jt7hnNMGfJYqxOH6lEjvrpMxTZQhk9fW5VYXgcwg0zKJYEloAa2llsZiWA6B8eVgQlYQEIv0wcAEY6x2DPZapDQcaSSQ4ePILT7lfEJY/HQd9AlGg6pQaSmYyVoizAShnF40dzYnfZcVksZNJJmpvqqAvXKD21IBFlE6KVNSpCLi+VVH+y/73X+NP//ZqzR49h8XlYs+lW5i9aTDKZR3g5Ia+NHz/8A4pGgbvvvUdFyEvog4i+RyJp6mp8bH/1eV576hF27z9IKlPk1PGzaEZeIScjWYPp85YznEgzZdZcbO5aNLtOUVjLhYrKvTFXDGLDUXV0btv5MRaTnSMf7eCdV7ZiclXhDIS5eOYSke4eJBzjqrXXkhe6omidZRqoDGNmwiE/2vpFLZtzZTtTpraw/+hFbv3CA9S0tKg4J4lmqhjiGZbpgFQwZnSbSWW9yHJIhAcC8RQQkMPpUJFREnAgecmR0YgaVOaKkuLnJBD0E/C7lK8/kSoRrLJTG3RiqliprXXTFNapDbrwuOyKUVzIZ7FYhfnsVHBQobdKPrKE9yLJTwoCLlVkjrdeeokP3nyb8xcH+NRt6ym7a9m4cQNVPoeaq4WCAZ79w+9x2Q2+8S8PYLN7MJV15URIF7NU+5yYM2OcPHhIOgbG4gV6usbXCoLsnXf1YqYvugabL6xE49LLmCWqWKARZeHd6EpvINmgkipSNDlUprRRyDFjegu1jTXc+4W72LljH9u27cHp97Nr/ymqGhpomTQXj9WqeqB4VBDJGdy+AJZAyzTm1Tey+ed/5qbbbmPi9EnIKD6TiZFIl/DK3gWZ7hq4XH7iiTh9onhvbSSVTKhcMZnuyg1RwGexbmBg93kpxJ0k8yWVapdK59XxNBYdw+4wMzosWcdZAnUunB4PowMZvG43mazEGkosr0URNGw2QZEUFGTQkEFIxYpZksQFvJdL03liD1ueehqP38cfn3mE+snTFEfz6SefIb50FrPmreDDN/7OS8/+lb++9AJWV50Kk5NBZ6mUxafb0YWeEYly/aZN1NV56R/s5fXntnDzzesYiZf5cN8h5mTLzLoqrEB6Vpsbk3V8LqZcEiqOUaYTNsx6ieHhtJLHCthB5FA3zJ7F4KXzavMrP6eIRzbeuIqJk9qxqGBtCYeQaUoFk8VGWooIARo8uWUr33ro+yxedo06inr7R1RKrAw4LRoqQkqQV7KGFGG0PCHFooSWlrBb7ePRvKUSNps8SagqrGKUGBkeI1hXBeTQyiXS0TjxuPyC8S1kqqyRG85hsThVVJRkMHd39xEI+BkYGGL+wrlIUI5iiFWE8icvvAlTWf7sDCf27+fpR39J2FEm0NKEv3EqB49c5PT2N3A5PDRPEfBOB8Md+7jhptWYHD6VWitJ6Hml+dKwGxolzYS3rhHNVs+5K50E3D5u+cxqxgaz/O6RP3D3fZ9WHqBcJoXVW/fJ+Fi8FPJfQ1H7hMohnolcvkRdjUzLnerPMpVzZJMGVmeAwViGUCDEsqXTkDSwCa2NmCwFxWGToIUqrxvdUcX5K71oDVWezas23cXKtdeRM6Tzt+Jy2/F5Q1RXufG4hUMpyRASUG1SqUiSmyyuaUmTlexLoRMVywXEUSzRISLKkI1iMOTH59MVpE78hjXVPiJjQ0RHJTqqQjZdpiboIR0ZUseXiAJraqrIZEqqRHa6nEpoId29pEpIdSvcyGIux+D5ozzzl6cpGWX+3yP/wrx5s4l2n+P8oT1ky2Y+98ADFAwH//Mfm6lk03z+Ww+hBxqhaCgryFAkhdfjwWISMUVZvaWyKrebDLqOH8HIl2mePJf5C1vx62UGujqpa5+O7qlWszHRIxhlTe3wxRopVabkU0vvZFaV63g8im4yk4snVC5POODg9IFd3Hb3Tezed4JJU2bi8IdIyNhIEtUtKHe43+3B8oNH/g+fPUDZJDHoFTTJYNFNjIyNcbE3httToSbkU44zGSImkjmFt5JdynjprKka3iar4LKhzkihWsgTZNIKinOmmTSCNX6ikSR1TQGceu0nkwUrLpeDStmtAgokZl5EdeHagBrFy2R4fHEm9zFPWRKZXDpPPPkXBs99RLXXz7X33MyLbx/g+P6PyY4O8o1/vpPJy+4ijwe7KUp8ZICKS3bTAfX9MMo5rFY7rc11aJUslZKmzKvypEtWkG63Em5sUd+MdCGHP1jH1i0fMXXWFDVJl3dWrrtYH6MjEnBk4A6KfKmooETyBokYxZDcHJOZjBxvMqfrOMdAdw/WQp6zl1J85TvfIV0wyGdTuJw+rnQNMqGxFofDRiyVxhJJ5DEZUexChi0UMPJZEpFRdHcD4YZqbLqB2ycYKY10NsmFSzFaJ9qpCUkOlySKjzebkn6UzeSQLaKQK/KKlSnbSH1cTWIqolnFYiepFzZMljKXu4dxpHMI6DSZLlEddCvjrEySFQpLXG5I0LQkWmRIRDP86fmn6Dh5mI3XL6RrIM2jv3wCSTQjO0ZJaB7V09HdPmxGgT/88UkunDzLI49tRnd6FanWov5sDathUnJaOdft8rRXJBnDUM1q9YQ2CrkY5WKBxJjB7MXLaW1tw9BcDA1HVP6YAEUlLkySM5TT25Dvn0l9/8RYrAoV9aqbVXy8hPoUckklAnzssS08FGxi6ux2EmlNnUL1IS/l7AgVrY7B4TwWu9mE7hGXU45yIaNGGRJKKvYHq9WB7rCodD+5WN6AkyUrJ1MpFzCVyiqSXbK3hG4hQOmyzSYPPJKPmYhFVESULLw0Cfg0aVT53PR2XiZZMOENNSvYqVwLt25RzjVZdIkhVzacIhSUHMx0Kk6+NB4Nv/2tF9j9zpt85talaGQw2Tz4PF4lV1q98lrW3HonhqNBAUF7Lhzm8N4PWbnmGvx1MyiVJBYrh8VkU/lng4Mpmpob6Ovvoa25Th1FEh8i0FIxBptKFazkcYfd+JrCynPqlMVLMYVmk2myBY/SjBVV4VMRbo3sZUwlDLUgLGOx5jBKeSyag1B1E4tWXMe7b+8mFh2gsWkCTneIvJFXyGKZT8YiEg+TpbneiSVcF6JUlP17Hqum46ryUKpoBHW7Gn/L/twl0SjFMql0El/ATUVyUeRZthlKhSj7bknS02UnkYsL1YHa6iAFpWE3YasYjI1FSEQG2fHGFpavvRZvTVBh60U6pVVsKoakItnC6vNuIZNNKLqTgAmEfJ5ORBgbENywnb2HLxOJRHB6q/BW1zB92lRWrb2RTNGnsmDcFoM9777L2NAQ//aT/8QRapcKG7PJjlUwxRaZC7rQVX5zQIkIpaqUykjpDwQUb/cqU5YcV8NXYjS3+DHZdXy+oCpyFEDoE8z8QF+CqiqbKoSkSutJRFSIa1ATIby8UbrETav19M1f+rLaLTU1TiAmYnuLRG5VOH3mOJPkrRTqYCqLxSiWiCcy2HwubBa7nEiUiiVVouaLZRxmF7oFsuU0Ab+TXBpylRw+jw35j5KGmjWFfC/mUqTiSbyegMq7F7JGNtHPW69s4b23dhGNjpIcjSLQm5vvrcc7oX08cFT+BSXfWcRn6uKUMPIZld4trMz40EW09CAOLUlVfYDVGzYST+Q5duAQD9x/G/UT5zGaECFUGZEyXTx9kkN7dvPd7z1AbdsMlekpWg9RnJQlWIESHl1ITpLIJ4s3s3pTi/mCmkZ/cvaCJvkxou40qJgl1dCK0+WhIquESlFtGoRyLunqmmDDRC5ahvqwS2EZhdNoNduRvADhJZg1N+s2bFJthVBwJZFQFnnFYpJ4Mk2uVFLZcGGbG0s0mqFkgiqzQ2m4JI7KretEMhn1vOt6lI/3H+KVl99h+uRGLDYnN92ylkq8giMwiY7ODtJqEDpDjUgaJ04jFh9SzC6vx0bHqb288vSfWbzoakqWGhXM+avHtmAJTeKhf11MIpJVChgZ2gsFS+SihWIamylDLhWl9+JpOk8d4/jpS3z286t48ulhav0WUv29PPvqDhzuAPd/pwXd16DmVpLneeXKZRatXMPCNTeSNqyqWRY1ikl6LQl40yo4RGegvocyYBYhoUlFSwowQm6MHE1y5cP1DuoaWxR/f1xxqaZu6iYYhrxlBlXV4/kHEhIkPZYQC7EUKRb08dA7W1E9gGKWzRQM1ftVLALGlubURqAqSDo7Gac/yOjooEp2t9h9NnTNgrmcxxD5j1aRWBR1RBnFBIVoJx88/1dq7SG2PPMqAbeOPTPAmhs38dp7f2TfnoP09ozwq8d/C04X72w7xNXzmzi2+32aa63EOo4xtTnEcF8P8SJEChX+9Jv/5qqNm5SYQeKiZLkkQXBD0T7O7N/O2FAvleyoZLfidNu53D/MhcsR+nvLnLkwQuQPW7htw2y+9pmVLFl7PVlTNdZsCZvLRHdXmvnL1nL1yjWMxKUUTqkxkKT/ivrGIt4aAWyb86oS/P83n/I+yW5mvDeR+zTOAzXLqaDo7PLUF1U5a7UJAk+YCDZEcTo0NMrE9gYlt5KRhCay3jwkU0JzL1Df6FRrDhlXjVNGhGo1HlscGY1ic1UxMJxnSisEHG6iiRymY6dOVhxm8TdaiRXK5JJpmr12Dn98kHfefJOmKp1Lp85jVNzEijk2rJ7N8MWzHO3LKoOr22Rm8tQJfPGhH5KulOjryeAUIkT8HMnRMxw7fIK+/jLVje1MnDGNaXNmMqF9Iml52vIS3KMrae5Lf3kKTCX2HDio/Cfz2mvQCibe/egE198wlxlTp3DmwH5sPh9Pv7qbb3zjbuYvXsXFIZ1s2cK89lrOXupTF6ux3qNCu7N5uREyDJdR53gK+vhQW0r8AmZFLJRqSqbdZlUxSfEhdECRV8kAqCK0PMHoyQNbLqoLKy+TbCzFTCW/n1j7DFNRucFSuQjVXh+nT0VobgthtZQUxUqE5cWCgMeFYy1HZ45KWUOSSLLqc5IkOXicsf5LXLv+Fizy2tk8Ug2ZsOQ62P783zi04wjhkItEtEhPscy6jUtYtGyRWsNSinOx2k/scAcLFk4lOjzEybMdKvtLiOYeT1md8RdP7uKV599VOrS7Fq4k0BBWzoBINEs6baaijeuSy5kk77z7DImhCzQ11JIeHOSf//NhHGUz27a/hdla4Mjukzg1Mzt3H+eqJQuU5Vxz1BHJu0mlM0yaFODiUJyewSSrl0wjlkxhKRbQZHdusapeymbWFMdGnlhdt6pvjQQ9lGW+ZfkEzyJ6N0PQLFJaylMtd1UuImoiomkWsjkTiXQev8+kjjOzKafGVertKWr0dCWonR1g8uSwGs9IYyw8f5Mmk2grsYgk2FYI1jjJJOTBlOrNwOECT0Mz8YELvPbC37E4VQR7THX77295jT2vb8Ph1ZnSEqDD4eWb963DFwwoaE4mLcp+L1cu7sNjM/jt/z5LuDrI1PnTsPtclCoiOcoQDtn54FI/Fmc9c5aso+xwMhpLi9BSxX04nYKdFziFhUJqmHdffgt/KETR0Pjy56/Hba3wj9c+oLbBw/ce/Dxnjp/j9JFz2Mweui9cYkpLHVNnzZfcRSY0mrCaLAz397HoqomkxAEgvE2LXQnOpacan2fJG2BSCzOtmFcfbjFAiR5adm0KBSYm1orcmIqCgIvIQt4S+dALGLwi/79ikMsWqQQk/0moMHITbep4dDo02idNoFAU0sg4dZDKJ6Obyvh0QDJFzRaJdhGduHk8aNWEmnJ7dCczZsxn397dWPIVC75yhp2v/JVtu/bzo1/+nNZWC6+98A/efnoroYCH9atn8dTTb9A3IIpBP4FqL1NntDB/Zi3rN93B1EXXqDGnMGOGB6L4XdVsuOPzbBQKhF1maXkFJpUBnO7TKKqoXpOiBe4/vIdsIqKe6ordwWeu2YApVyQ13MMHJ7pYdf3NTHLU46upZ6D7POlohHWf+zoWcawVKiQzaeX2qqsOqJ1MNmvB5xS+/fgUWjpGmULIVELGSiJYl+l3MllkYDjFJG+d6h2kMpNGRP5HLrhMr2XBJk4zmZzLWyO7fZcTfG4PyVxe0Wg9Dh1ZREivXynmVJgcdrciT5nUTZHRjDwSwuWRgAmZWqoyQQ09JQ9NCLt2bEpWe/TMWd56fw+m48eOVQZPb+OZxx4jEA4TaGxj4fwpTGvT+e5Xf8XYQJZg2M7VS6bRm4Sezm6qQkHFYlm6diWb7voikWhJOW1lVJ8viPDBg13mRnYnORXhWVblo5yt6uMnT7RhwShE+cHX76etuZbb7/uSCnu4cu5j9r79GqNDfXzqc1+i6KgnUB8mm4wy1ttFuEFi5uuoFGXfL8wWcQxI9oBsEiWsSCJ7y6o5lb5FvhPjxqZx95dQxsVkJGV5WfoxQ9g5OYVKlMs3/ruhvCr9A4NUVdnxekVfUFTfESkG5Mbm5ZWX5lGWUyZN4UlkRlbRpArUFFR1vDcaD9eTn0ONFdTNKo9XZoaMrcoKmSKDWnMxxUjHGcx2mZ1lOnjtH28zbe48UrkMHk+Jx594ngktYTz1dZjcMRYvvhqLbsZtyxPM5OkbTnDjbRtZvele+mKammdJJeJ2iFu3osYWXqeDKts4n1k9hhLQIA1zpUIqnUNqo3wizsZbNjFt7kKsvhBb33iTxNApjh44wiO/fwxTuJlYWphnJtIVD9bQTGrq/Ao6KoIOm8WCzW5Xb6Ogu8yiWJHJgdWmBolmERLmcoyOjtLU3KSOD6m+5OmXzGXROcjFcjtkEix/XY4wqZIryhYujMrq0Cd9jpxYKnxbpsnC6BShoiTYlnC5PepmmSyy8BofUSmN3idVmPymaiCihuNyi+SbViKViiuY0fBIBKvLjcdmw+IIUNcSwvTmb75UiY7109QykdoJk8kZJv7fvz3KjIkemufMJZHRufO2m8mqvK5qrvR0YrF78ARb1JjCZNWwWeSm2RUB9UrnZWwuJ5KBIhu9oHD7DXkCTETHhhgeGaQ6HMam6fSNSayiHXMmxVOP/ZKx3k5i+SJLFk7jqnkLcQXDVNXY0V3NaM4AqWwKWzGm+J1WPYjuCRBLa+rt1J3ChDYpItOhU2PMnFaNT75lMgEuyI5n/G0VzZnVIt8OuTFyg+RiSmM7/v2QDlE+1EbFQkn+OXMBzewY/zXy9yoWUumIYlJrFSsjCQgFPVhNhmo0Zco8foPH3xR5EORlkZstL5e4yEYjWWqqPRREjC6HnNlMIp2iNuhReoXapjr+P07ssmkOx3o8AAAAAElFTkSuQmCC;" vertex="1" parent="1">
          <mxGeometry x="110" y="250" width="102" height="102" as="geometry" />
        </mxCell>
        <mxCell id="aWJygEzvaQbmNNzUwZUl-37" style="edgeStyle=orthogonalEdgeStyle;rounded=0;orthogonalLoop=1;jettySize=auto;html=1;exitX=0.5;exitY=1;exitDx=0;exitDy=0;" edge="1" parent="1" source="aWJygEzvaQbmNNzUwZUl-33">
          <mxGeometry relative="1" as="geometry">
            <mxPoint x="290" y="540" as="targetPoint" />
          </mxGeometry>
        </mxCell>
        <mxCell id="aWJygEzvaQbmNNzUwZUl-60" style="edgeStyle=orthogonalEdgeStyle;rounded=0;orthogonalLoop=1;jettySize=auto;html=1;exitX=0.75;exitY=1;exitDx=0;exitDy=0;" edge="1" parent="1" source="aWJygEzvaQbmNNzUwZUl-33" target="aWJygEzvaQbmNNzUwZUl-58">
          <mxGeometry relative="1" as="geometry" />
        </mxCell>
        <mxCell id="aWJygEzvaQbmNNzUwZUl-33" value="" style="shape=image;verticalLabelPosition=bottom;labelBackgroundColor=#ffffff;verticalAlign=top;aspect=fixed;imageAspect=0;image=data:image/png,iVBORw0KGgoAAAANSUhEUgAAAGYAAABmCAYAAAA53+RiAAAag0lEQVR4Ae3diZZcxbGFYYHbA3j2M/j9H85gGw8Yr6+ufnl36lSrW0jCZt1cKzsiY47YJ09VgxCf/fGPf/zu1ev13Xffvfr73//+6h//+MeN/vOf/3xD6e4tuvRRtj/5yU8e7YeHh1eff/75q3/961+vvv3227f2+t7L9d8m14++2j/96U9vPHn9RNWO/+yzzx61cZ4pP39k8REPCtoCP2Kq/7nQV3N5uOriyvDK7v9l/5lAD95JWew8l8/bjTnlD14rLby9wdNdUXZXQbMtWZQ8Pppsz/m/lF69EsS4Jy/+Ve4rWbHoiomerzOvNa9xs6TfGW/cjVEt0QefKS1OPl/2/R9Y2Zx0E506Z3pbHHE7J0O/z9Lcu7b42ZSrvFsPnTpXFp8/uvF8ptg/+9nPbvvnP//5KztgrmLeAhwPTHHTvQVMoARIDeQQvZKfspqKimk5vyt+eZ6iDcsTe7VXv3z1nHU467/aepDyjcqFR4Hyi1/84s0GypdffvnmS045ltaTGNZJyR7ckNYWVoFkVjTbk97TkwdIcchWfs/3zNG5RpwD5PwG6LwD5EOGlhtt+PHOvo2ireovF1p8NwUwX3zxxQ2QqNdZMwzoqLj1gC5fzkc3hjBndBvIYSn9u1Y2xasI8nTRd8Wiz3/5BmVYfW3FN7xog5VPPefgALLx2XTOt1hRwLglAfLLX/7y1a9+9avbTQrgzSWnmMWNbj9kbwHTwBpW5+cM7bQpBjl+i0j2PvGLg9oBA5Te+X0ApzPIhimnAbUbHNtik7Fn01pwir/AAOXXv/71q9/85je3zxvAtMuFVne0+OVGH73KMviQtMFLht91nld3xZ+NsGnwgeLpXXDoGyJ5w+5pjhqY13rDqW7+eJSueMU8X2XnjTnjLzDqr6fy1vfl7zEpPyTV3Jn8JfEbCmq4qN0T2wcwYNqBBZB4NBAAYRse6hvqN9988+pvf/vbjXbD6PCBcVJ16M8tK5beAiUqr72LrxVN98mAKeH7Uk9qg2owZADxLej8AHYOtG5RNBAAAAw7MP7617++sgNTTvryO28d5IYKFHHF+fOf//zmVRYY9O1u486CbNcnBWZvzVnIFnXFa76hNDQA+dD1+gBO1IevMyDogYSPdjPcDhsQ6F/+8pebXa88Q7fkLT9Zmwyvl24LYMiAFBBRdoCq9/zQZPX+SYGR9CygQp6iBtAQDM12G1AA2D50baD48E2OAicAAQQYTzVAokDB03cj5VSvQZd/ayEHmmX4wKC3Aow/XTb4ZNGAuxm9/vHJgdnkL+EbgqEFTDcCGED57W9/ewMFJXODzg0gT/VXX311AwIY9tdff30DW/yAMLj9TCC3Gn43ydlwfZZY+GzEsK14MQMD7UzPD/2vB6YGDcXQ7D47vJrcCMN3SwDyu9/97rYDJ9C6UezdlD/96U83MKJ9JnUDDMfQeiVVx23C8yM5Wz6G7EYmH9M3LJvdAM0/o/cC5kx6nguO7lPQefXP5eWwuzkGuLcnsPosCbReacADkjNfg2n4PbUGZKhtN8sNoz+XWvjvbrhiW9Wcbz6BIt9usVovAqYrLoF1Xu3kBUcrNh6tmey2oGRo8Wro1CUvXrn2TGY3gIaSjZj6sAP6fFXyrx4522R0Yopf7OQ3p9c/1oeo/NWHkrWeBUxB0ZqITyfg8iUvcUmjbOnyS34TvOCHOLvEaZd7qeFtXv6BEjBuXTfP7WGfHRrPz6uuzVZuOXaxPxe76gpYstazgGFcMV4DgROt2LXDNwTUrpiSV/AWlO4eLVe+2W0M/O4dQHVkL44+9tXoxiwwbNnVO2qTAaWv3ezkcnta+XbmQ5Yt++aDt9g8CQyDDNGAqLAaYreb3Op6F+cmfH2NFUGuwPddZ9yNs43H7wDKWw/dln2NdRPY1jPKFuXrc6g6xNdzfSWvruSdxa0mNGDo7wKzQStMIeQ1U7Erp883W4nEaAfKFhgfLcaeT1m6aPGj5Hj57OSoVX31EzhuS6CgVoCwyY7MNzxLfLZeZy15xL5a1RQFKL71IPi9tQ1owj4LdJY8cJwbIL73rhw7GPaeEot9uarFuTjJ0I0RX3P79OE1azdktagpGcpuc9cHyjYg8G5TZ3yxyPBbb/VH6dIvveL1+eB7f0uQmlxKvoVVYMXRacRWJGoZhMTOaPGj5PuUVMcVzae6DLSBN2j5vFps7305azw/Nnzp2Tnn5+n3TwDazjbb7U2/9UzXL6l4sdQlh7X9x5uRr/diNlc+aqzeh9///vdv5kDRU8QQ37kAggaM4D0tFRsVFC+RLbZiFWPIu8jZnPI9LzDs1SW+OhtuAzZwNbbqi4/h8Q8U/nZgGnLARPlY8ll6aIBy0i+I4jXk7RdvW/zNzvbqVNP2++jGCLZNxktUEFTTuxW8enwNoA1VcrEqIFqTN6c7P9gWJ1ACRsxqRQ1ZDdnLm97D1JnfbgMOjCigxKuPk+ZffGf1LTB89GirOVp9bDcu/uEPf/jDTeiHgkMfLQgdfsHQYOdAccajFSK5uLaixSGz2XiCKuxNIQeTPTtxoudQDLAnXx52hsROvXRoMrTNpt4DJUquBvHs+PpCxYni6yv75kGuNitZ7Tq3Hr3KBHQlDZdzwSVs4IYeKKi9uvQlqViNF5dM7AZeMU/RhqHRYsqhZrG7KQEjPp166OSu1vzp7c58gWEGSwHDJrvlt4dqRAMAb6k1WbN1ToY2M/YP/mGfRdHwnEtCZgumuROEGg6kgBFPA/kbzhYkfoWw7cm6FXPxg301icvHDpjNY8BypcNXPypXgOyQ1RggfWaggCl+MaNK1Ye4qK0utJ7wFnl1NEs0GX1zeVCYhVasgHarwA2nwbDfQrJLxo6PRVYBG7uYitpVrGTbSM2IV8x4cXaLs7HKh6pDjfV+9l/t1YDmz4e/2PJF1eHsAW1XezVmU9xqKZ9YDz7cSiiZJ8QTp0h7h1gj2XeuuW1Q8p40cktCcoW2ahSlb6fvzEejaK+kbmcDWHoOw7DIUPU0DPGt6igfO7t60y/ltzbZlludWxOeTfnMz02UU5xdD65uS8EBw8GZc000YLJA6Smji0cV4NVQHDEkV5x1DoR+h5INH/IFZIERr9dog4g2KDS+vNXvXH/1SiavnW89ZxOtp8BA1RTFdyYTryWGJb+9682NIWTothiovTem4rMDhAYkwgcMH4WQ44vBXxOKq5CTNpCl5TgbreFAqPmlDTUqhhqs6he/VT3O5eV7VTOZVU9bR7Wx4e+cnbM571aLs/ytt4DxhBtmdI0LlnOFBYoCAuMsoGHXZDEaBqr43fnUlOb57xDwe24oqBp28xVLLnK85XwOpjrYVfPWmj1dOdXhl8XqKcfWoCdxLDGac+DQW29eZSXNYJ/0DZRdVCA+CuQTVYxVIRqt0JtirrBYNZpdtvzFtDWMNgi0QURXtwPB8xVfro2vHrJqqO5qSZe+etlVl/y71cFf/eVytvibVQ80cLyhyFu3b2UrqAiyNuOKWj2+lRwNqApbcPBXKzkaz65ztAGj5zakU7bnBh1dHV+1l6fa2cRXl7noES0nug+Fc7Gi7K1mtMAAh7z1AOUWRwYcLOfdHDvjbUmzL046De1m69zr7qRi00fxBmPxLS6aLFrzmw+fPMq+uIbnFhbDYBtWT7SzmbD1+VvMath8t0Dzo1lVOxWZePbZfzHZPQJmFQqStGB0JVqafsHhx2aLjhdnm3Zub1yAOLf4n3bpGvpTtDqLKR4gnPk576ACKGDoW/WAduvE2FUeMnad0c1zzqIYDz0xBUA5N4TkZCtPX0EVzgZPj+7WBPstZovMt1yB44w3pG2ygaLx8rEtL3krns4NsMjwV7elOj3d+fJRQ3VvHnyrHk4a0Py7Nd0gtq1HN4YTpcT4iil4Q+kcFSyejQL5ojskNmRi19jSjVM89njDE7saagCVq725k0XzqS5y9RVXXdW21AezpQ62alaPXWzUimYbrW5xA6Ley8umGDdgCsZAIA4NlCFZuyai6cVgU2BnA2CH2vTk23RFocUqF1qxasKnuxkfoIhd3nImQ8uP15+9q1rk2hp75aU32H7X49+sxLXkifJR99K9KXJ1zo/vA9StgtbQTThPicANJcqmYKgCioMGxsYkF0tBDYCfXbzik/G11Mlv99rdjI4f1UaMlxutnmpEbfmqbanBO/ekA0o9AZt/6auLz8ZcXiz63Vvvm18wBTeob17/27j+CQCZgLaFbgB+V6vi8mMjFnu64mRHTla8cmSrAf62phouakg23rDwVjY90Z3FXF5Om2xrSF5/1eacrj7yU5/49AtMPD1bqx6LVR70wR+ubnEGyO7zmglWwPyWrm4LwGtcEWwqdO3pzkXPl72m9n1Px6enFwCBwGcBi6dvVUvnk4pffdGrGuUqFju1OqOdUXa7yWxr4+IfAcNJ48BADcIuwQYo4FUzKxMzP3wNbIHZ022B2ZOpQV2rVwOwFxjnht8rp8+I6igG23vDqaYrmn86MeozGUqWLl4f8WzEaq/vgz/t3hIkMAKk8wY5eX4WGt8525vB60KyW7rNJi8GnYbUgk9P5twt6UY6s+mfWeENgy2bVjL6FhtrZemWsrOzqxYxWwEQrY49599Dku+D/y4kJWGIcrad05+N1QS/bArcOZr8pOnvxaK3axxfXW6Kpam2ON2YeilnNs7sxMk2m+i9etIvrUbU6rx8MlTezmzkapNbt1dZh5vkInByjVnR5NGSRcmLvbLsi9MQ0NO+cz6asvl6tdEDyNkWAyVnZ9U0ebb07WKf9EpPdi6yHmB8g88uHzR9umi9q9F69n9OnmOBa77AJUVbyZyXdy5etuc5eTT/hr3g+Dw0cF9a3AB88dgZWrfHmb7PH3xnOXp1R9mL69tqn7uBIIdtRcVoLb82W9v2lT39QwELFs2o80kLyF/xu97lu7bx61PsdNFs0G3OoAzSDbINsbpOnSEHBhDbZFb2qK23YorLn7wa9gFNVm1bbz2It3rncmWD/l81K3kHX3JmZ+LO6fZ8hr3SbcHFWD8+2dQgGiiG1quAbU+9wbohnvhuCrtAifJpUCfttkTZBgq+etVXjeSry0fsdOUJ7Pp9dGMKknIpnYTW2pUg29U9JUt3Fe+Uda7h9dVYABiaIWen2W6RGwE4wLAx1HOL29DQeHHwPdnp2AdONTan5hLd2HzESlZstPXoxtQQ5fIZR3f47FpbRDbRbJaurnwrW1v8qXPWYDdGDLtGyYEQYHtb2BlQPvhyiGs3qPJGqytQyMVBd/PvzIeNetFyba3lo3sEzM36iR+StDb4ytO/lD43RnaoGjQDgIbkXLMAIXdbAIQ629WPttVc/OXT8+u2iZWcz9WmV0s6542/terB2WL3CJh1ulk88ePKNln0Cff3Uolbc9EaP5uUwNNpmNETlC1CPCsa72wDwk6OdlbXuem3tmYi1tZTvvxvCcTOIUH0npy+Yjfold9TMbL/ULSaeqLRZOrYIV3VnazbhLaSdesA4rW4/5JRjvqNXypWD0+5kgHKjUmOProxFVKCzu9DN8by7xPrykdMDezeATbYmmXfPuNVH9uAZVO8eGd6gLQ3Prtiles8A2d9gBIwaOstYAqUwT0qeAnY3PO7J78X933k1WJwDQ+tLjWcO91ScdgZ/i6x6NBeaYDxB1nIip3P1TkdYKxuDzB8cxR353n3VVagkzYE8ho5bc7CTv2HPjc0QzLU9jkEZ7UlV8fWuoOhE8+q5+LuqywbcVrLJ4suIAvK+TC8dWMKcEW38Ipl91QhV3E+pKw6og2vRns9qBFv46s5kNCefvWJl6wz/YLSjTn7KXZysVpXwPQ1nk22LwKm4EsbyFnM2nxsvhqiBmg3dLXhAwZPdu78UMBmp36xk+/rjIzuXGLToenR6ugXX6DYPUjFeREwJakhSSznaLqb4CP8qIbNV7MGr+EG6JuOTb58NV5RtoYUFbu99rW2QydzvidTl7h9cej2dWPyE+dFwDQMARTZCqDOn5KqQ/79uil/QzAIm018A2ZX7fWTXTfG2S5P5+wCYqnc987i+sUXGADqxuA9VPysFwPDqSZuEV7/2GZX/jH4zY838BqqDmd8A9yBZqO25Z3Z5bc+8YGcHdvWCUYARXtdBUY3pVejWMV4ETAVUdMVlNx5+fQfk8pnSG4MvnM1NtDkWyOZxYa9tYPP94pmJ0a+/IHQNnA6gETZ9CoLoIChK9aLgOGokIqpseTop15qMKTqwveEJqvO51BDFAO9AiSZWNnpueEHQOCgBo9m000JmM7ivDcwDb4mO/9QVB22gWmqxp5Tz/awcRp+tPidT2rorQABBiB2d4POGwMYsq3/xTemAv4bacO9qu0KsAUmn2IsBYTzCYizWyM2QNBuLGoVJ182Pvx90O83RfZsqvNHBUzDvaIGVNMN7MrunszQFpyGurclG3bdHPGyQen8l+L+dJLtP07u7xYIZD7PAub7NHSv0R9CbijPXWyzj/bUG2D7/NLBll1g5FteOkAApb9QqL/k4UXALCiCn2eyM3lF/BhovTVwg11QzCMd2iYPyNXz7ZZE+0/46VpP3pgrEHJcWnEr+1/mDXJXw27AAYMGgA/59ACxsnOr8OT4b+av0QJKOz++d4FZUJY/C+78YwOnvtCA6QZEDdk6QaHn0wd8lL0PfsD4gyFL8QFjlneBqbB7oNCnU8SPYennaht8/W7PAUSH97niZqDOffsCTDxA8Ff0RcC8ZOCK/qFAamDVu+flr/TJAOB3iv57/f5a+Wi/b/ido99TtudukHjdjkAJGDSerg3Qbib/d94YxtvY8jUUzfZjg3PW0HlpvNrw57malxo2UADhr45fSmf3W3pn/vptsN2iAEG7HYECtDZ9/KNa9vBSvmY/NhBP1bVDj4/yi0f3fBWzGxEg/X8BnAHhFeVWtcXUu8FGG3LAAOMEBojs0OXFqM533pirBmowXcGcPyZIm6cayJ67+93ijFMfCwxQ+l+cuD18N09nAFhuimF3K/amBEy0WwUUvJlFq+VFwNTQ0lD+mIBUbLT8nVGyBt/QTsqmffqqf4FxS4Djf28CGOuqRwMFQk9+NyQQnPv2FWh8rMAQN9lN8ZzPmAo6h7ENCrz6qwZK+CHpAoEPCLXEJ++8daulutUMmD74e431vzahP59w5/wN1o3ppvjdJCCA1CZrPTWnuzeGU0kFKkiyzqsjy2/1FfKhqRwNvvf+0sDIZs/VrR9brG6JV5hb0hcAYBk8INrbZ09+wACn3WdJNuV91yzuAvOU4xa1icj3/FSM76srlzgG2zemXkfO5AtKwJDnFxUPAG7IguKrsZgAsQw4/85kAcAuUAKR3qqeaj/pzej1jyeBybGge8ZvgRv0Y/HlrI7ObgkgDLGvu4YZKPQNJXDqKSoW315he1vIDZ5NT7548QHAxl5gAqU88otjW6hYnW/C537GZLyB4peevPOHXjWycQ2+zweDNVQgBQzKJlDQ1j5cfPabWOCQB4RBd3vEcE7WbfE5Ahy1pmcrhtzk6cjx53ryxqzxlfNL9Gv7ffmtRbPnjQGOpzwwFpjAqQb+tgXcgA0UcQDTIN2IfMiSA2VvC2CsbPD8Aoa9M/3VejYw63wv2Np8Sn5vjIH2OmoQARRtsGpc3uuQb18CUBtgAcBGHH5W8oBZcDY2W6BYbtFSvud6L2DOID/EWdOGolnb8GxPt2ECKJ1BBgpZvtUtjm3o+azO4M7B91W4zxOArI3hBwzaipevddZD/iQwBWEoUOcNWvAPTct1xl053jZ0Qw2YXj8LxoLTex9t6HjD1ZtNbugA4OuXRP9iC+3fn6DJ/J7Cnl8xqt25utOdNNvoJTAFyQj1JFmbpPNN8QF/bP746KYhU1dDD5wACpiTAsAOoEAQT3/kgQIYOQweEAGDxgfKAlOdYhW3HsgCJruTXgKTUYE6oysLJPRDr/L0QBQ/eWdgtPd1dn74sxGrreae7oBJ1pmPoQdMYETpzhuzQ28u0Wq/sqmf6JPAZFRA55LgyZ3Try7fk+ZzyvfMppjk8UvLS2ZwbsUC47Omm0S/wIjpxvAVJyAMDE+XjxgWENoLDFmfN/z4N/jq5b+zwe++JTh+vAVMwZbGC4bfJHte/shzOxbnKbtsOOANKP6KNvxuDUDclr0xdNmV2zDLZZjOqHzlxdv6pQ+YKNm+8vC9ItUKoF0nGM0xurZvAUOpsHbnqCB0JVk5/rmrGGtPZpW784KTLLuGFwUAPiDOc/6oHoDRcLtFa5MdEAInPmD4dVvE29mo07n1lC4b9K3/3aJCajI+h4JeUTbk+5Q412Qxlsqzi+29ze4qlnyGYkheMf6sVr8QLiiBhfoQ7891sbfJTmDKqQ/gBWA8GiDqsNme66zbee2Wz/cRMBwC5aSc7X0itpj0AsefBZUUpWvv+YpPhrb4lsdwvF58EPdZAqiACRRnfgBkC4xACRi2LbZW4MtjB0ygmElzOX2d1dmq7ij58tndBUYTuwNB4fEC2s4NaYtYvoRk+UXFjK/Q7K8o21ZDAwxQ6ORwDogTGDrg2ACJGu7GjhePLmCiZM0iytbeVZzoaXPa830LmMDoAzMqsUIqULDOEtKXEL/rKjE9P0NrJ2O/TWys5cvbK0ac6jJwvRQbDSj2C47b5ayfatg8Ym7/7Dqn2/7Xd+M9p6d83wIGEFdb4q5uAylpDbGhq4CSoBqwW9nt4Brs2mV/JaOrLoNd3lfngNgc8uoDGO2Arf5yLqU7t5rI0N3r1yzqly4Z/l5fd4HxAQogDaIK0KimBNaMFSi3wyRib10lrkgDw4vbELfB9WWXbnORqQVt4BtvcwQQOz5RPRSj2Cct9/aVrD6d1dmKR9t06ghQcn7nevT3lVW4xpYHjCbISsBG8M5LzyRPnflZ+Z+2Z9HsVhZ/Dqza6sPwl9ePTW43KPGqqVrKge6mT3fadj5jJUfPXlb3n68gKz34kkefSna4vuhY/Oc6XdWRDG2LF3/SMxf9uVaWP5uz3rU7Y7z0/CxgXho0+7Pw5PfoSxsTf32W3xz35GvzXP6lPZ01PjfPvwEgXTZOfpCtEAAAAABJRU5ErkJggg==;" vertex="1" parent="1">
          <mxGeometry x="379" y="380" width="100" height="100" as="geometry" />
        </mxCell>
        <mxCell id="aWJygEzvaQbmNNzUwZUl-39" value="Segmentation&lt;br&gt;Network" style="shape=trapezoid;perimeter=trapezoidPerimeter;whiteSpace=wrap;html=1;fixedSize=1;direction=west;" vertex="1" parent="1">
          <mxGeometry x="212" y="540" width="120" height="60" as="geometry" />
        </mxCell>
        <mxCell id="aWJygEzvaQbmNNzUwZUl-42" style="edgeStyle=orthogonalEdgeStyle;rounded=0;orthogonalLoop=1;jettySize=auto;html=1;exitX=0.5;exitY=0;exitDx=0;exitDy=0;" edge="1" parent="1" source="aWJygEzvaQbmNNzUwZUl-41">
          <mxGeometry relative="1" as="geometry">
            <mxPoint x="410" y="290" as="targetPoint" />
          </mxGeometry>
        </mxCell>
        <mxCell id="aWJygEzvaQbmNNzUwZUl-41" value="Classifier" style="shape=trapezoid;perimeter=trapezoidPerimeter;whiteSpace=wrap;html=1;fixedSize=1;direction=south;" vertex="1" parent="1">
          <mxGeometry x="290" y="230" width="70" height="120" as="geometry" />
        </mxCell>
        <mxCell id="aWJygEzvaQbmNNzUwZUl-43" value="Prediction: 0.67" style="text;html=1;align=center;verticalAlign=middle;resizable=0;points=[];autosize=1;strokeColor=none;" vertex="1" parent="1">
          <mxGeometry x="414" y="280" width="100" height="20" as="geometry" />
        </mxCell>
        <mxCell id="aWJygEzvaQbmNNzUwZUl-47" value="Stage 1: Classification" style="text;html=1;align=center;verticalAlign=middle;resizable=0;points=[];autosize=1;strokeColor=none;" vertex="1" parent="1">
          <mxGeometry x="20" y="160" width="140" height="20" as="geometry" />
        </mxCell>
        <mxCell id="aWJygEzvaQbmNNzUwZUl-49" value="Stage 2: Segmentation" style="text;html=1;align=center;verticalAlign=middle;resizable=0;points=[];autosize=1;strokeColor=none;" vertex="1" parent="1">
          <mxGeometry x="20" y="430" width="140" height="20" as="geometry" />
        </mxCell>
        <mxCell id="aWJygEzvaQbmNNzUwZUl-51" value="Pseudo Mask" style="text;html=1;align=center;verticalAlign=middle;resizable=0;points=[];autosize=1;strokeColor=none;" vertex="1" parent="1">
          <mxGeometry x="480" y="410" width="90" height="20" as="geometry" />
        </mxCell>
        <mxCell id="aWJygEzvaQbmNNzUwZUl-59" style="edgeStyle=orthogonalEdgeStyle;rounded=0;orthogonalLoop=1;jettySize=auto;html=1;exitX=1;exitY=0.5;exitDx=0;exitDy=0;" edge="1" parent="1" source="aWJygEzvaQbmNNzUwZUl-55" target="aWJygEzvaQbmNNzUwZUl-58">
          <mxGeometry relative="1" as="geometry" />
        </mxCell>
        <mxCell id="aWJygEzvaQbmNNzUwZUl-55" value="" style="shape=image;verticalLabelPosition=bottom;labelBackgroundColor=#ffffff;verticalAlign=top;aspect=fixed;imageAspect=0;image=data:image/png,iVBORw0KGgoAAAANSUhEUgAAA0AAAANACAAAAAAnCFKeAAAdlUlEQVR4nO3dzXrjOq6FYbmfff+3rB6kqhLHtkQSILEAfu/gnJ7slARiCZT89ziAVc6R/+gx8W/b/S/mnwVqIECAAQECDAgQYECAAAMCBBgQIMCAAAEGBAgwIECAAQECDAgQYECAAAMCBBgQIMCAAAEGBAgwIECAAQECDAgQYECAAAMCBBgQIMCAAAEGBAgwaPzaR8Bs7LtD2zs05LtJmUCAARMISwyOh77+DJhBBMjXjyWktH8Y2rq3husTxCq7uVy8neu8MEDrE7TzwrrqXLkd6m5u5qEiLY7Qf2v/uaL6F+3Xf1EtT+fxCPq9ntWqrVwEn1YptBLBBVka3ULLFsV3vdIviFs5LJVYlyG2cEbeS3UWyNBOWCyTeVe6nAvjWA9jAVbNoJzrpGL2KiVbHddymM99TYSSLZGYJWuUZonUbgZZHXHr7lT1V8m7Fj5nvGCFeIiQwVcj6MdIzYIXo1iUYSGvFEqu14RKuJ0nt6miQl9o11o1/1K4nt/cldJaikSi36kis3AzCuF9chMXS2YdsokO0HEcAqs3qQr+5zVtufhE6hiJ/BynxmHsLPwalpRQ50YtYa590ayjJUBDhPJzHBGrOLUAc05nziHzOlAFJxfCew/t5+1bERtAX9YtZeLXVtwPnQANkMzPcSxazdyv7nsfPU/hKlnxVE726tHm4ZxOJtAA6R7KdPl+b35POp4HE6gaXhu65ziGCFA90yJUZQB5/iNs4fpluMQnejPMb4ta0ul8mEA1uU+hDFeNLk45ZQL1y9JLfmtb9JvWPE6LAHXLkp9En4t+srAlHU6NLVxheaIexCGrTKBuqdrStr71P7VuPkMmUG2Whwk7vKJkTisTqFe2rhpc4bDTXN2RxhMlQL2yBWhkjSPPcXlH2k6WLVx9vR2yw9btB1timUC9MnZX8yoLnFxAR1rOmgm0g9YOEchPNkygTll77H6hRc4soiNX/gzy7kTarN/lSuucVVBDDheALxXZxfmhNXWykxIB2sabBBEeM7ZwnTL33NNii55Itq+JZAJtSTQ9gUZ/SogJ1Cl16z3OSV8v6CawH8fKwgTayamdnox4IbUP/VfW2PAjQMCXoQQRIMCAAPXhoUthI4tLgAADAtSJEVTYwOLm7IfzCDxyHsRNFN2P3YvLBOoWvcaYqHtxU3bDv8tEtve+4058P3YubsYJdL75X4CPzghnDFC4+Msk5ulb3Wy98DJzYk6A0TeJRD/2rC4TaIjEOmOSntVNFqDXa0PQLCBBOI4jWSN8CAu7uGbinwaS6cf2IiWbQEJElhoztC9unjb4fFHI9jH6OF+VUj5unX5srFKWT6QqLzo2ppP4Szf54R0JTb7LpHrkSu3YViOlI/6g4UTYxLV4rpLksUu1Y1OFxLdwkqv8bfS7kJBB0+pKRf5ZT3Py2YZ7b2okd/Ri7dhQH9UJJLe0HySfQY80hVYl+TrQmeg30sSumZ+9O9A0Bx+koT5aJRzOTeRp5Aj7xwpJHb5WOx4N1dHYwkktYq8Uuzi5zkzido8rUFif/mMGXbmpjswJCLTji+vihE8gmbUzSDGDrsi/x1RX9EOEGuumeOGEk+vFDZ9AmK4p3gyhjy7vg4InUJU1YwSVdrG8sSvvmJ/oFpa9FPQUJvwkolexX+gRe65XeOnDm++t7rLEnkb4KnaL3MJpttyofGsPB+l+k/ITgf6VuyAM1iTwPARWsVP0Y2w3At2rtvpqx9NAYBU7xQUoX61uSXXsY/hoxv/LDdX5II3EqqtcFezF4Pv22kS9kKrSac4E3tSTrgVzq/N1HCKNE5og3xpEnIrIKrarEyCZ2kdFaML5rz8VlUVsFrOFi9/oTPQ4jsVnmK7rCgmp/Zzukmyj2UGaftJrr3WSa3iJd2PP9asjzO2Yr8OKi1iQSRe1dL2l/2Hh4zjWziCVc27HBIqTpFv46qsrAe9EYDlQx/oAkR8UUubNpECE5QFiAOWT5GYtBBMIMFgdIAYQSik0gcjmNHxC6KPFAaLJUUuhCQSstzZAUwcQ24yJ1hQ34RIygdBkxW1QwvwUClDG6qcyPUIpV3BpgGbu4FJWP5m5Nc65gisDxCO47Hic/WJlRRhAFWz0ceIWde6BsMaMVk882RYGiB1cDf7dnjc+ZT6RmnkJ9pZ95dYdP3dAlbitZvalKxGg5ItgrEzM2TstZ/KlI0DBEv/Gpceh5124f5adAvl5UuBhMN9xdxzrToI7oCdVLifj55Fw0d4iQMvNf5y/sCCjJ5NszT4rEKBUa7HoxTDxW9tUS3Zt0amQn+Mo+iW5/SeVaMXurTkZNnDr34ghuo/Lslyt0r8TIcmCrH8f06lYG70jsko/gVIsSdjbAMVucVMsVp8lp0R+wiglKMVa9VpxUuQnkszThBRr1S39PZC8bT7F8bg405rhOY4lZ7b1ABKIj8BrQvrrNGz+qW2dH4UABT/QTrBIFnykeyqF/Kw8iNe0FM9P6p9Jl18bifgcR9xXx8ivkB0PEeaRyc9S379JvEF85m/hdh5AOtZG+WthEn/TTo/JAdrzIvxF6dzXJ2iP+GTewqmvkFJ+VlNfG0dzJ9DGGzix/IgdTh1TA7RxfrAJXgeagyv+JmYGaOMBpJcfvSOqYWKAWDLUNy9AO+dH8dwVj6mAaQHa+feE6dV98BABMJgVIAYQtjApQPQQ9jAnQHPzIz6AVHFRm2FKgPZeqr3PfjczAkQHYRsTAjQ7P+zgBnFhm4DH2N5o0634B4gGwkbcAzQ9P+zgIMT5E6mMH+zFdQKd5Ef6EqJ8bFn5TaByP14I3HMKENc27MklQMQHu/K4B1qaH8IKJfYA8eTgCfdoezFu4QhPKifx9maaQCHDh8xCiCFAUXs38QRxkd/KeIDE+ziOcoJYNG+jAYp8dEAXQMZggOhh4DjG9hvx6VHeJR0KBfpIvHL59E8ghdd9BA7hCl26j+4AifcurrF8znoDJLIAIoeB7fXtNoT6VnubJFSo37QLl07XBFJqC6Vjwb46AqTw9CALLvO7aA+QWnzUjicL6uaq9VKpWHbpy7xiwb7ML9v3uUsvkYvGjzPotgPknC//s3CO2k5NND/S6yJas+lV+3Dej+MUX7AxTae0ay/YqFYtJkCL/vXlGs5HtRGOQ3s5ZOs2s2gdJ628du2SB0h6FVQLN69mg2esvIh3bh8iqHYB6sj8qOHuoOXzo1x11eJNqpn9dJUX8wN+HwhOHC4XqlecC9eZz3BCylct1frNqJnPuSqv5luXE0h1/Z+kOMj6nJYh3RsurwKU7VzQyn9l/f5isghdBCjLiQgfZ7oNySjXNRBe0Ff/pTpaaHJuojPRlafCUzjha0CeRrBQ3hHOViFAyuUWTZD8lkt4SZ+VCBAizen1LAmqEaAs1dbh+NTM7S+t+bvOagRIuNqiezg38yqvu6Y/FQmQMNEEeb3w6fNn3v/tDBGqEqAMtS5octkTrGqVAKEk/QSVCZBuqevu4RbssXSX9Y8yAUJN6gmqEyDdSlcdQWsqrruux3FUCpB6pctZVW/tdS0UIF2iI8hmXV9LJ6hSgKQLLShNvZQPtFKAdBUcQUubWjhBBGhjwn2ZRqkA6TaE6AgaL9jiUuuubKkAYZXlDS2boFoBki1zvRGEL7UCREP0GitYQJlVV7ZYgHSJjqAhIc0smiACtLdEudZMEAFaRbJVJQ8qFQK0M/JjVixAyh0hd2yP0SOSO5NAjb/SjXJIgYtiE0iaVMuaDkbqTGIRoIV0+m549/b3v/c5jALYwm2I9vfDBFpJo3M1jqKf5AtBTKDdZI2PqFoTSL45og/wYb35+feHfP5MfrUCBCxGgNYKvXJ7jR98I0CLBfYw8ZmAAG2D/MxAgFYr0scRp6H4HLtUgHL0ZtBR5ihOOqUClEREK/P8YBICtIUJ8SGRx3HwToQQj9WbeZr9r7+Vd6sIAdoA+fnj/Pm/fKqy/GI4U55GWVr1WWUJaB3Tqbw7XnNtmEAhVl638lxWZvpQ8NNankoPETJ1yrpjzVSVeT5fsIyXMiZQcRPzk2f7f3mg52GpUqUJlMqiwcD8mfxj4gQoypLWnvuPrE9nfxTOpviMR4wAhVnQftvPn6nD5ziOUgFK1y3TDzhdRby1x2c4aYUClM/kDdb8/GgntC8UgwkiQJFmNqB2c5eR51HknZwNM638a8qxvntaz2vkyEZqxgSqKeflxM+yZBOgWJNuVFblRzWn6yYjAYo2owdV+9pB06s6g/kZ+e8IUDj3bt/906dLb8zKBChx0zgf+tJKJC67jzIBysy1C3dvadObD/r/WwKkwLHpt8/P4n+PAEngS9+bXSdk+QtTfB5IxcNh9evH58b6F3arTKASrZPxhxelCm/PT/dfqBKgIkxbOalenmfap7OHsIVT8zjWvZGrlpC3dTKBFA0MorD8ZPhY6kQESFRnXzJ/5n/49C22cKq6tnLkJ0qRzwPVbaCW9Qk+e4kPBbkdRGcxmUDiGl4eqnv1SIAA6bvJUHh+BHYxcUdAgFL4fEMUHp8Ip85ZE6A0HsfxkiKdRtpVjcfY+/SR5JmGH5TnDq7zb5WYQOELuNDPObTTeauqEKD9+mi/M5ZVYwuHWKUC3beHyz+BSi0eskk/gcgPIqUPEBTsexnLHqB9Vw6zdN0EJQ8Q+RFRaiF6EpQ7QKWWDRllfgpHfBAu8QQiP0p2XY3EAYKUTROUN0CbLhgW6HiKkPUeiPhAQtIJRH70LFwToeXPOIGEyoea2j/ymilABEebwHcjrJckQGQH3xZ0Q/MIEg/Q4yQ7iNCaIOEAPf79H+Sw4x5OMEBkJq0NE6QTIHKDhAQCRHKQV/gLqV6/rgsFhRazcTcaHaBCFcex4XoGB2i7eiONthEUGyDyg+QiA8TtT0EL1nRV2zSNoLgAEZ+aCi1rS4LCAlSozthYVIDID0oIChD5qWuvtQ0JELc/cDWrnxpugq7+6VnvDCQ+xU1+S+nMH7lv+ceeXL0X7jHluIgPCrnewk1odvJTX6U1vpshd+fqPIMqlRafTdzEvW2hmZvG6569e4jg2vE8PEA1t0/haHr0q9Q019Ot4TG2VzGI4ka2WeyW14FcarFNRfGlzoJfjqCmF1IdSlGmmmhWZs2vEtT2nQgP43OOMqVEjzkvJGrpaO3xYpCffa15HSQuqB3vhRuOAfnZWPXF73kz6Vgt6txMYkTx9e89u95ZWbt6aOO3w8q8hTuOo/t6Qn5Q21CHt+ad+OAvpxmRfgIdx9E8hsgP/vFpBr2WGvxu7IYXhvTOFXBnaPPrBJEf/GLeZ33uqbgtnOHXGS6nEPmBN8mesh7U+whJnirCWQbFTU9FzSB7q785cvKD94bb/L6lghJk/4Gtl50c8YE33Z7yOrIfGdI9WcTrHxTN/RQyg7y+WPH7pSHyg414tvvp/PdQUteg6OmnkAlEw2O1jkbvbM+ACAn8SjfwXoare4ZjRD3Gr203/FlnBAghblt9rDMnJejzwbCFg6I0F/Y0B4pyPk4LS1NOGUEXBxT7M/dAckwgRPJ/J+WEEXR1RAQIwX51vLkj3RN0eUQ8RICSdBf0dAeMks7jmPLOZg+Xh8VDBEiQ/f7Fm+NSPWxgmOsEukkIEwjlrJwKBAgwIECox3EE3f0pAoSC1m3iCBBgwFM4lOTzJO4+HkwgwIAAAQYECCW53Js0/BECBBgQINTkMIJa/gQBAt5riiABQlFrXqEhQKhqSYIIEGDAR7qBdxrnFxMIZa3YwxEgwIAAAW+0Ti8CBBgQINQ1fhPU/F8SIBQ2mqD2/44AAQYECJVNf5JNgIBfelJHgIDfOhJEgFDa7D0cAQIMCBDwrGtoESDUNnkPR4AAAwIEGBAg4FnXtwITINQ24WfvfyJAwC9nR+gIEPCiPUH8vAlKG97B8aUiwOw7IAIEvNd4I0SAUJhpADX9xwQI+KAlQQQI+KQhQTyFQ10OjxDuAsIEAgwIEHDh7mEcAUJZPi8CXf8VAgRcu0wQDxFQleO7ED7HhAChqulv4zkOtnCACQFCUUsGEAECLAgQYECAAAMChJrW3AIRIMCCAAEGBAglLdrBESDAggCholUDiAABFgQIMCBAKGjZDo4AARYECDAgQKhn3Q6OAAEWfKQbE/wZAUHdtXAAESD4e23gtW22MkBs4QADJhC83QyA6S23cgAxgQALJhB8xf8+79IJRIDga6R9XbtwaX7YwgEWTCC4Mlz/nXqRCYQ9rfg1EncECJ4Wt288AgRHtvxkTB8BAgx4iAA/9hFi7sfVU4wJBDcOzXv3m75yCBBgQIDgReEx9PIBRoAAAwKEQtbfQREgiMn1HIEAoY6A6BEgyBnNQcToIkDQk2gXR4AAAwIERSMzKGRsESAUEbPtI0DQ1JuHoNsmAgRROZ4kECCUEJU2Pg8ELzN6uLU/w6YVEwgwYALBy6Qp0NKicbdLBAhO5jXxbZMGPm5gCwd5d8/jIh/XMYHgZHIbf+7U0MfdTCDk8HEMxb5cRICQheQLq2zh4GRJfz+O81fPBseKAMHJuk7+2bTRY4kAwcfiTn6E/KuvCBB8BLTyIz4/BAhO4ns5BE/hAAMCBBgQIMCAAAEGBAgwIECAAQECDAgQYECAAAMCBBgQIMCAAAEGBAgwIECAAQECDAgQXGz6cSACBFgQIMCAAAEGBAgedr0FIkCABQECDAgQYECAAAMCBBgQIMCAAMHBtk+xCRBgQYAAA36dAWb7buCYQIAJEwhGO88fJhCs9s4PAQIs2MLBYvP5wwQCTAgQDLYfQGzhMI74MIEAEyYQBjF/joMJBJgQIIxhAB3HwRYOY4jPH0wgwIAJhH7Mn3+YQIABEwidGD8/MYHQh/w8IUCAAVs49GD+/EKA0Iz0vGILBxgwgdCE6fMeEwgwYALhHuPnIyYQbpGfz5hAuEF8rrgG6CSQ5RCfa44Nf3r/QcQjPzf87oEoNTbkNTC+48MIqoOL4q3/fP4MlS6IRW3gMS9+FZoRVAP5aWG/Bzp/F5rCYx/mLRxxqYl1bWPcb70vM5u49MhPI1Ovf6wyCcqN+DSzbOEoc02sa4fxWXFZZkZQXuSnx+AEosjAcQyOiob4MIJS4sLYa6DR24pMghIiP936t3AUuSpWdkBvgChyUSzsmK6dVleR2cOlQoDGdLR5b4lJUB7EZ1TrFo4KV8bqDnP6PBASIz4GbQGixGWxtDaNNyojZeYeSBzZcdDa5QPFJkDKSI+P9i7vrjgBEkV2HPEQYTOkx1fPmOisPRNID/Hx1vOlIiQiuZfvf4HZvF9nIG5qiM8EXQEiE5mRnxn6JtCDCKVFfqaY9hSOqEkhPgZXvdx7D8QMSon8GFy2PK8DbYD4zDMyUJrWg0klg/wY3PXxyGNsspEK+Rl3f8cyawtHyFSQn2EtTTzY6LerQoA0EJ9xTT3MQ4TSyM+g5gEwPCmul4YBJIH8DGrvXyZQYeRnTM/ln19nqIv8jOhsXUOnX60PAQpHfEZ0N66l0y+WiABFIz+9xnqWn3isqW5+PvSW8YSHO9bW6p+OmgAFq5afeV/hbm3WKb/STYCC1cnPnP50+usef+LtEZKfUBXi49tCE7uU14HKyZ6fCZff7z95ev8L5r/1ZrkYQJFy5ydd79gP+HXB0hWhksz5ydg4bOFqSZyfjPHxOerfi5azEhUkjk/Wrpn3xYrABlxy/3zhS3opyS/z/EnbNS4TiO+6UkB+IrCFqyJ1fvLyD1Daa0luufOTt2mcApS3AEXkzk9iXhOIBEXih3/CuG3hHr/+P9AscdPwEKEA5k8cvwAlvooklz4/mVvHcQI9/v0frJQ+P6nxZtLkiE8sz3ugBwNouQr5Sd00rg8RUlcipQr5yY2ez6xEfnK3II+xEyuRn+QIUF7kRwABSqtIfnLv4AhQWkXykx0BAgwIUFJVBlDyHRwBAiwIEGBAgHJiByeCAAEGBAgwIECAAQFCoPS3QAQIsCBAgAEBQpz8OzgCBFgQIMCAACFMgR0cAQIsCFBKVd4Klx8BQpQKOzgCBFgQIMCAAAEGBAhBStwCESDAggABBgQIMCBAiFHjFogAARYEKCPeySODACFEkR0cAQIsCBBgQIAAAwKUUIFnCFVugQgQYEGAAAMC5O0ssMGarswO7vgv+gBqOb/+T53+wA2W2s3T5JlZ1wIjrk7b1TmTYK9dPa20+QNUqOvYwnl429Ls5HbAGptdDYQZ5c0/gCp1HRPI5K6ZmULV8RjbomEY8FS7Ni6Qw5qT4VvjAoGs1HRs4QZ19DH7uMII0IDuIXDWuuriG/dA/YY2UV47rwI7uFKYQJ2GG/hkBlXEqnaxXf89il1gApXqObZwHayPpAs0P34pdTWYy6X9rfWukMFSPcc9UBu3ZwClugds4QALAtTEb+dUYQ9mU2sGE6DFjO1Tq/sKIEBNHjKNq3MkOA4C1Mypb2n/YljQdg63L07lTn0jVavlmEDtaq08XBCgDuYEeUWQGyEZBKiHziM0EiSCAHXRufTrHMneCFAnQ986tzwRUkCAeg23rX+/k6B4BKjb4JV/RreToHAEKDUSFI0VGNL/Sua8Qmd7VbVWyzGBhnQ3wcSu4WFCJAI0RqpppQ5mMwRoUF/TTm5xhlAYKj+u/eZjSZWz3AvVajkm0LjmTljTMoyhCARovmWNTYLWI0AGcg2bYQglOMQeBMiiqRmWdkyGCJVCvY1ub90DKiz9OKFYxzGBjBT74cEcWoZvJp0sqJUf4nOoDCaQ1XVCAkcBY2gFiuzg87U+vLx6Yyi8JL6KnU6Qj20qUV6tEEmUxA/3QDNpNAv3QxNpLHF67xtUrLgaKRIrilWx04nzpjslaxueIsmqjGMLtxn2c76KXQ8CvbSlcmkDM6RclgFMoC09joNJ5KLY9SDSr35MUtnlKUpSl1bFTifWj2bMVdeVKcpVmVvFTifYdyMmrOuiFCWszJVipxPtbxNmLeuCEGUtzQc8RMAPPFzoVex6EO6r+fJXdV6I8tfmiefpnOWqM+A8ylRhToiKFOcv71+9LVaeAWe1GjjnqFh1PE7nqcLF6oPDN0LV+sN4PlneQgkbvwhVaw/LUzie1mzjwWJ/MHpBuKhntWsMjuNwu1xW646h87mpZbUa4YtLhKo1R/8Wjlm+qwdL/6rrgtBawGpXGfxlj1C13mg/n57aVasS/jInqFprtH6x4sn4xlGv/82aCqL0m9QIZruSlmuMhocIzB78wEtCT/g4A3qNR6jc/OHL5TFi8HvrC+aHCYQhA1OoYnyYQBjVO4Vq5ocJhGE9U6hofJhAsGieQmXzw+tAsFL8meV12MLB6GYnVzo+BAgOLn7xoXh8CBB8PI5NP9/fdoY880eT/b5fhgkERz82c1vEZ9oE2qV8eOvcZ/l5HQj+9skPAQIsCBBgQIAAg7YADX7+A6iOCQQYECDAgAABBgQIMCBAgEFrgHgOB7zBBAIMCBBgQIAAAwIEGBAgwIAAAQbtAeI5NvBi1gTiN2SwBbZwgAEBAgwIEGBAgACDjgDxflLgNyYQYECAAAMCBBgQIMCAAAEGBAgwIECAQV+AOl4J4t2k2EFXgHglFXjWN4EYK8AT7oEAAwIEGBAgwIAAAQa9D9Y6HiPwzA71MYEAAwIEGEwMEC8aoT4mEGBAgACDmQFiD4fymECAQf+LNT1zhZeCUBwTCDCYGyDuglAcEwgwIECAweQAnWziUBoTCDAgQIDB9ACxh0NlTCDAYH6AGEEobMEEIkGoiy0cYNAfoLlvPwVSYQIBBksCxAhCVWsmEAlCUWzhAINFAeJNpaiJCQQYLAsQMwgVLZxAJAj1sIUDDFYGiF0cylk7gYgQimELBxgMBMj0daOMIJSyfAKxi0MlAVs4EoQ6Iu6BGEIog4cIgMHIEwGXAcIvn6CCsAnEPg4VDA0Cr95nCiG70HsghhCyC51AwwcAiAh/Cse9EDILDxAbOWQmECAShLwUAkSCkJZEgLgRQlYaAWIIISmVAJEgpCQTIBKEjHQCBCREgAADAgQYECDAgAABBgQIMCBAgAEBAgwIEGBAgAADAgQYECDAgAABBgQIMCBAgAEBAgwIEGBAgAADAgQYECDAgAABBgQIMCBAgAEBAgwIEGBAgACD/wMUnQWObJcYkwAAAABJRU5ErkJggg==;" vertex="1" parent="1">
          <mxGeometry x="221" y="640" width="102" height="102" as="geometry" />
        </mxCell>
        <mxCell id="aWJygEzvaQbmNNzUwZUl-58" value="Dice Loss" style="text;html=1;align=center;verticalAlign=middle;resizable=0;points=[];autosize=1;strokeColor=none;" vertex="1" parent="1">
          <mxGeometry x="394" y="700" width="70" height="20" as="geometry" />
        </mxCell>
        <mxCell id="aWJygEzvaQbmNNzUwZUl-57" value="Prediction Mask" style="text;html=1;align=center;verticalAlign=middle;resizable=0;points=[];autosize=1;strokeColor=none;" vertex="1" parent="1">
          <mxGeometry x="300" y="620" width="100" height="20" as="geometry" />
        </mxCell>
        <mxCell id="aWJygEzvaQbmNNzUwZUl-61" value="" style="edgeStyle=orthogonalEdgeStyle;rounded=0;orthogonalLoop=1;jettySize=auto;html=1;exitX=0.5;exitY=0;exitDx=0;exitDy=0;endArrow=none;" edge="1" parent="1" source="aWJygEzvaQbmNNzUwZUl-39" target="aWJygEzvaQbmNNzUwZUl-55">
          <mxGeometry relative="1" as="geometry">
            <mxPoint x="272" y="640" as="targetPoint" />
            <mxPoint x="272" y="600" as="sourcePoint" />
          </mxGeometry>
        </mxCell>
      </root>
    </mxGraphModel>
  </diagram>
</mxfile>
